<?xml version="1.0" encoding="utf-8"?>
<!-- Generator: Adobe Illustrator 24.0.1, SVG Export Plug-In . SVG Version: 6.00 Build 0)  -->
<svg version="1.1" id="Layer_1" xmlns="http://www.w3.org/2000/svg" xmlns:xlink="http://www.w3.org/1999/xlink" x="0px" y="0px"
	 viewBox="0 0 300 260" style="enable-background:new 0 0 300 260;" xml:space="preserve">
<style type="text/css">
	.st0{fill:#C3CDDC;stroke:#000000;stroke-width:2.9273;stroke-miterlimit:10;}
	.st1{fill:#969BA5;stroke:#000000;stroke-width:2.9273;stroke-miterlimit:10;}
	.st2{fill:#DCE1E6;stroke:#000000;stroke-width:2.9273;stroke-miterlimit:10;}
	.st3{fill:#1E78FF;stroke:#000000;stroke-width:2.9273;stroke-miterlimit:10;}
	.st4{fill:#DB3E34;stroke:#000000;stroke-width:2.3418;stroke-miterlimit:10;}
	.st5{fill:#FFDF00;stroke:#000000;stroke-width:2.3418;stroke-miterlimit:10;}
	.st6{fill:#96E706;stroke:#000000;stroke-width:2.3418;stroke-miterlimit:10;}
	.st7{fill:#FFFFFF;}
	.st8{fill:none;stroke:#F75875;stroke-width:2.7242;stroke-miterlimit:10;}
	.st9{fill:none;stroke:#F8A500;stroke-width:2.7242;stroke-miterlimit:10;}
	.st10{fill:#1E78FF;}
	.st11{fill:#FFFFFF;stroke:#000000;stroke-width:2.7242;stroke-miterlimit:10;}
	.st12{fill:#909198;stroke:#000000;stroke-width:2.576;stroke-miterlimit:10;}
	.st13{fill:#E4DFDC;stroke:#000000;stroke-width:2.3418;stroke-miterlimit:10;}
	.st14{fill:#1E78FF;stroke:#000000;stroke-width:2.3418;stroke-miterlimit:10;}
</style>
<g>
	<polygon class="st0" points="195,222.5 134.8,222.5 144.2,202.2 186.8,202.2 	"/>
	<rect x="151.3" y="190.6" class="st1" width="27.3" height="17.7"/>
	<rect x="77.4" y="53.9" class="st2" width="171.5" height="136.7"/>
	<rect x="77.4" y="53.9" class="st3" width="171.5" height="29.9"/>
	<rect x="227.8" y="63.5" class="st4" width="9.9" height="9.9"/>
	<rect x="208.6" y="63.5" class="st5" width="9.9" height="9.9"/>
	<rect x="189.1" y="63.5" class="st6" width="9.9" height="9.9"/>
	<rect x="86.9" y="92" class="st7" width="153.7" height="89.3"/>
	<g>
		<polyline class="st8" points="105.2,117.7 96.9,109.5 105.2,101.2 		"/>
		<polyline class="st8" points="113.7,117.7 121.9,109.5 113.7,101.2 		"/>
	</g>
	<g>
		<polyline class="st8" points="184.7,117.7 176.5,109.5 184.7,101.2 		"/>
		<polyline class="st8" points="193.2,117.7 201.4,109.5 193.2,101.2 		"/>
	</g>
	<g>
		<path class="st9" d="M144.2,129.3c-4.7,0-8.6,3.8-8.6,8.6s3.8,8.6,8.6,8.6"/>
		<path class="st9" d="M152.5,146.5c4.7,0,8.6-3.8,8.6-8.6s-3.8-8.6-8.6-8.6"/>
	</g>
	<g>
		<path class="st10" d="M209.8,160.3v-2.3c0-1.2,0.5-1.8,1.4-1.8h0.9l0-2.7l-0.5-0.1c0,0-0.2,0-0.6,0c-1,0-4.2,0.3-4.2,4.5v1.9
			c0,1.8-1.3,1.9-1.4,2l-0.5,0l0,2.9l0.5,0.1c0.1,0,1.4,0.2,1.4,1.9v2.2c0,4.2,3.2,4.5,4.2,4.5c0.4,0,0.6-0.1,0.6-0.1l0.4-0.1v-2.6
			h-0.9c-0.9,0-1.4-0.6-1.4-1.8V166c0-1.4-0.7-2.4-1.3-2.9C209.1,162.6,209.8,161.8,209.8,160.3z"/>
		<path class="st10" d="M232.5,161.7l-0.5-0.1c-0.1,0-1.4-0.2-1.4-2v-1.9c0-4.1-3.2-4.5-4.2-4.5c-0.4,0-0.6,0-0.6,0l-0.5,0.1v2.7
			h0.9c0.9,0,1.4,0.6,1.4,1.8v2.3c0,1.5,0.7,2.4,1.3,2.9c-0.7,0.5-1.3,1.4-1.3,2.9v2.6c0,1.2-0.5,1.8-1.4,1.8h-0.9v2.6l0.4,0.1
			c0,0,0.3,0.1,0.6,0.1c1,0,4.2-0.3,4.2-4.5v-2.2c0-1.7,1.3-1.9,1.4-1.9l0.5,0L232.5,161.7z"/>
	</g>
	<g>
		<line class="st11" x1="129.6" y1="109.5" x2="168.4" y2="109.5"/>
		<line class="st11" x1="95.8" y1="163.3" x2="196.9" y2="163.3"/>
		<line class="st11" x1="95.3" y1="137.9" x2="128" y2="137.9"/>
		<line class="st11" x1="169.5" y1="137.9" x2="232.4" y2="137.9"/>
		<line class="st11" x1="210.9" y1="109.5" x2="232.4" y2="109.5"/>
	</g>
</g>
<g>
	<path class="st12" d="M104.1,178.5c-0.5-1.8-1.3-3.5-2.1-5.2l5.1-7.9l-4.3-4.3l-4.3-4.3l-7.9,5.1c-1.6-0.9-3.4-1.6-5.2-2.1l-2-9.2
		h-6h-6l-2,9.2c-1.8,0.5-3.5,1.3-5.2,2.1l-7.9-5.1l-4.3,4.3l-4.3,4.3l5.1,7.9c-0.9,1.6-1.6,3.4-2.1,5.2l-9.2,2v6v6l9.2,2
		c0.5,1.8,1.3,3.5,2.1,5.2l-5.1,7.9l4.3,4.3l4.3,4.3l7.9-5.1c1.6,0.9,3.4,1.6,5.2,2.1l2,9.2h6h6l2-9.2c1.8-0.5,3.5-1.3,5.2-2.1
		l7.9,5.1l4.3-4.3l4.3-4.3l-5.1-7.9c0.9-1.6,1.6-3.4,2.1-5.2l9.2-2v-6v-6L104.1,178.5z"/>
	<circle class="st13" cx="77.4" cy="186.5" r="23.3"/>
	<circle class="st14" cx="77.4" cy="186.5" r="6.1"/>
</g>
</svg>
