<?xml version="1.0" encoding="utf-8"?>
<!-- Generator: Adobe Illustrator 24.0.1, SVG Export Plug-In . SVG Version: 6.00 Build 0)  -->
<svg version="1.1" id="Layer_1" xmlns="http://www.w3.org/2000/svg" xmlns:xlink="http://www.w3.org/1999/xlink" x="0px" y="0px"
	 viewBox="0 0 300 260" style="enable-background:new 0 0 300 260;" xml:space="preserve">
<style type="text/css">
	.st0{fill:none;stroke:#FFE573;stroke-width:11.2937;stroke-miterlimit:10;}
	.st1{fill:#FFFFFF;}
	.st2{fill:#00CCFF;}
	.st3{fill:#1E78FF;}
	.st4{opacity:0.85;fill:#1E78FF;}
	.st5{fill:none;stroke:#000000;stroke-width:2.4523;stroke-miterlimit:10;}
	.st6{fill:none;stroke:#000000;stroke-width:2.9273;stroke-miterlimit:10;}
	.st7{fill:#1E9AF8;}
</style>
<path class="st0" d="M222.1,141.2c0,38.4-31.9,71.8-71.3,71.8s-71.3-33.4-71.3-71.8S111.4,74,150.8,74S222.1,102.8,222.1,141.2z"/>
<polygon class="st1" points="117.7,50.7 117.7,89 150.8,108.1 183.9,89 183.9,50.7 150.8,31.6 "/>
<polygon class="st1" points="181.8,160.9 181.8,198.7 214.5,217.6 247.3,198.7 247.3,160.9 214.5,142 "/>
<polygon class="st1" points="53.3,160.4 53.3,199.3 87,218.7 120.6,199.3 120.6,160.4 87,141 "/>
<g>
	<polygon class="st2" points="235.2,167.9 235.2,167.9 214.5,156 193.9,167.9 193.9,167.9 214.5,179.9 	"/>
	<polygon class="st3" points="214.5,203.7 235.2,191.8 235.2,167.9 214.5,179.9 	"/>
	<polygon class="st4" points="214.5,203.7 214.5,179.9 193.9,167.9 193.9,191.8 	"/>
</g>
<polygon class="st5" points="193.9,167.9 193.9,191.8 214.5,203.7 235.2,191.8 235.2,167.9 214.5,156 "/>
<g>
	<polygon class="st2" points="171.4,58 171.4,57.9 150.7,46 130.1,57.9 130.1,58 150.7,69.9 	"/>
	<polygon class="st3" points="150.7,93.7 171.4,81.8 171.4,58 150.7,69.9 	"/>
	<polygon class="st4" points="150.7,93.7 150.7,69.9 130.1,58 130.1,81.8 	"/>
</g>
<polygon class="st5" points="130.1,57.9 130.1,81.8 150.7,93.7 171.4,81.8 171.4,57.9 150.7,46 "/>
<g>
	<polygon class="st2" points="107.7,167.9 107.7,167.9 87,156 66.3,167.9 66.3,167.9 87,179.9 	"/>
	<polygon class="st3" points="87,203.7 107.7,191.8 107.7,167.9 87,179.9 	"/>
	<polygon class="st4" points="87,203.7 87,179.9 66.3,167.9 66.3,191.8 	"/>
</g>
<polygon class="st5" points="66.3,167.9 66.3,191.8 87,203.7 107.7,191.8 107.7,167.9 87,156 "/>
<line class="st6" x1="126.1" y1="158.2" x2="106.4" y2="168.7"/>
<line class="st6" x1="175.1" y1="158.2" x2="194.7" y2="168.7"/>
<line class="st6" x1="150.8" y1="116.9" x2="150.7" y2="92.4"/>
<g>
	<polygon class="st2" points="183.4,125.5 183.4,125.4 150.8,106.6 118.1,125.4 118.1,125.5 150.8,144.3 	"/>
	<polygon class="st3" points="150.8,181.9 183.4,163.1 183.4,125.5 150.8,144.3 	"/>
	<polygon class="st7" points="150.8,181.9 150.8,144.3 118.1,125.5 118.1,163.1 	"/>
</g>
<polygon class="st6" points="118.1,125.4 118.1,163.1 150.8,181.9 183.4,163.1 183.4,125.4 150.8,106.6 "/>
<polyline class="st6" points="183.4,125.4 150.8,144.3 150.8,181.9 "/>
<line class="st6" x1="118.1" y1="125.4" x2="150.8" y2="144.3"/>
<g>
	<path class="st3" d="M150.8,151c-3.7,0-6.8-3-6.8-6.8s3-6.8,6.8-6.8c3.7,0,6.8,3,6.8,6.8S154.5,151,150.8,151z"/>
	<path class="st1" d="M150.8,139.2c2.8,0,5.1,2.3,5.1,5.1c0,2.8-2.3,5.1-5.1,5.1s-5.1-2.3-5.1-5.1
		C145.7,141.5,148,139.2,150.8,139.2 M150.8,135.8c-4.7,0-8.4,3.8-8.4,8.4s3.8,8.4,8.4,8.4s8.4-3.8,8.4-8.4S155.5,135.8,150.8,135.8
		L150.8,135.8z"/>
</g>
<polyline class="st5" points="235.2,167.9 214.5,179.9 214.5,203.7 "/>
<line class="st5" x1="193.9" y1="167.9" x2="214.5" y2="179.9"/>
<polyline class="st5" points="107.7,167.9 87,179.9 87,203.7 "/>
<line class="st5" x1="66.3" y1="167.9" x2="87" y2="179.9"/>
<polyline class="st5" points="171.4,58 150.7,69.9 150.7,93.7 "/>
<line class="st5" x1="130.1" y1="58" x2="150.7" y2="69.9"/>
<g>
	<path class="st3" d="M214.5,183.2c-1.8,0-3.3-1.5-3.3-3.3c0-1.8,1.5-3.3,3.3-3.3c1.8,0,3.3,1.5,3.3,3.3
		C217.8,181.7,216.4,183.2,214.5,183.2z"/>
	<path class="st1" d="M214.5,177.5c1.3,0,2.4,1.1,2.4,2.4s-1.1,2.4-2.4,2.4c-1.3,0-2.4-1.1-2.4-2.4S213.2,177.5,214.5,177.5
		 M214.5,175.6c-2.3,0-4.3,1.9-4.3,4.3s1.9,4.3,4.3,4.3c2.3,0,4.3-1.9,4.3-4.3S216.9,175.6,214.5,175.6L214.5,175.6z"/>
</g>
<g>
	<path class="st3" d="M87,183.2c-1.8,0-3.3-1.5-3.3-3.3c0-1.8,1.5-3.3,3.3-3.3s3.3,1.5,3.3,3.3C90.3,181.7,88.8,183.2,87,183.2z"/>
	<path class="st1" d="M87,177.5c1.3,0,2.4,1.1,2.4,2.4s-1.1,2.4-2.4,2.4c-1.3,0-2.4-1.1-2.4-2.4S85.7,177.5,87,177.5 M87,175.6
		c-2.3,0-4.3,1.9-4.3,4.3s1.9,4.3,4.3,4.3c2.3,0,4.3-1.9,4.3-4.3S89.3,175.6,87,175.6L87,175.6z"/>
</g>
<g>
	<circle class="st3" cx="150.8" cy="69.9" r="3.3"/>
	<path class="st1" d="M150.8,67.5c1.3,0,2.4,1.1,2.4,2.4c0,1.3-1.1,2.4-2.4,2.4s-2.4-1.1-2.4-2.4C148.4,68.6,149.5,67.5,150.8,67.5
		 M150.8,65.6c-2.3,0-4.3,1.9-4.3,4.3s1.9,4.3,4.3,4.3c2.3,0,4.3-1.9,4.3-4.3S153.1,65.6,150.8,65.6L150.8,65.6z"/>
</g>
</svg>
