<?xml version="1.0" encoding="utf-8"?>
<!-- Generator: Adobe Illustrator 24.0.1, SVG Export Plug-In . SVG Version: 6.00 Build 0)  -->
<svg version="1.1" id="Layer_1" xmlns="http://www.w3.org/2000/svg" xmlns:xlink="http://www.w3.org/1999/xlink" x="0px" y="0px"
	 viewBox="0 0 300 260" style="enable-background:new 0 0 300 260;" xml:space="preserve">
<style type="text/css">
	.st0{fill:#1E78FF;stroke:#000000;stroke-width:2.8164;stroke-miterlimit:10;}
	.st1{fill:#E4DFDC;}
	.st2{fill:#FFFFFF;}
	.st3{fill:#1E78FF;stroke:#000000;stroke-width:2.9273;stroke-miterlimit:10;}
	.st4{fill:#1EBD3C;}
	.st5{fill:none;stroke:#FFFFFF;stroke-width:4.0828;stroke-linecap:round;stroke-miterlimit:10;}
	.st6{fill:#F6E7EC;stroke:#000000;stroke-width:2.025;stroke-miterlimit:10;}
	.st7{fill:none;stroke:#000000;stroke-width:2.3418;stroke-miterlimit:10;}
	.st8{fill:#909198;stroke:#000000;stroke-width:2.576;stroke-miterlimit:10;}
	.st9{fill:#E4DFDC;stroke:#000000;stroke-width:2.3418;stroke-miterlimit:10;}
	.st10{fill:#1E78FF;stroke:#000000;stroke-width:2.3418;stroke-miterlimit:10;}
</style>
<g>
	<path class="st0" d="M91.5,161V95.7c0-2.7,2.2-4.9,4.9-4.9h131.9c2.7,0,4.9,2.2,4.9,4.9V161c0,2.7-2.2,4.9-4.9,4.9H96.3
		C93.7,165.9,91.5,163.7,91.5,161z"/>
	
		<rect x="125.7" y="67.4" transform="matrix(-1.836970e-16 1 -1 -1.836970e-16 290.1633 -33.4861)" class="st1" width="72.3" height="121.9"/>
	<polyline class="st0" points="223.5,90.8 223.5,113.2 219.2,116.9 219.2,140.9 223.5,144.6 223.5,165.9 	"/>
	<line class="st0" x1="102" y1="91.1" x2="102" y2="165.5"/>
</g>
<polygon class="st2" points="153.6,168.6 143.2,166.3 148.9,157.4 133.8,142.2 124.8,147.9 122.5,137.5 101.1,137.5 98.8,147.9 
	89.9,142.2 74.7,157.4 80.4,166.3 70.1,168.6 70.1,190 80.4,192.3 74.7,201.3 89.9,216.4 98.8,210.7 101.1,221.1 122.5,221.1 
	124.8,210.7 133.8,216.4 148.9,201.3 143.2,192.3 153.6,190 "/>
<g>
	<path class="st3" d="M196.3,202h-67.9c-2.8,0-5.1-2.3-5.1-5.1V59.8c0-2.8,2.3-5.1,5.1-5.1h67.9c2.8,0,5.1,2.3,5.1,5.1v137.1
		C201.3,199.7,199.1,202,196.3,202z"/>
	<rect x="124.7" y="65.5" class="st2" width="75.1" height="126.6"/>
	<polyline class="st3" points="123.3,64.7 146.5,64.7 150.4,69.2 175.4,69.2 179.2,64.7 201.3,64.7 	"/>
	<line class="st3" x1="123.6" y1="191" x2="200.9" y2="191"/>
	<g>
		<circle class="st4" cx="162.4" cy="100.9" r="18.5"/>
		<polyline class="st5" points="152,102.1 159.4,108.6 172.9,94.8 		"/>
	</g>
	<g>
		<polygon class="st6" points="132.5,132.2 132.5,169.7 182.1,169.7 192.3,178.4 192.3,169.7 192.3,168.4 192.3,132.2 		"/>
		<line class="st7" x1="140.2" y1="142.2" x2="185.8" y2="142.2"/>
		<line class="st7" x1="140.2" y1="151.6" x2="152.7" y2="151.6"/>
		<line class="st7" x1="158.1" y1="151.6" x2="185.8" y2="151.6"/>
		<line class="st7" x1="140.2" y1="160.5" x2="167" y2="160.5"/>
	</g>
</g>
<g>
	<path class="st8" d="M138.8,171.5c-0.5-1.8-1.3-3.5-2.1-5.2l5.1-7.9l-4.3-4.3l-4.3-4.3l-7.9,5.1c-1.6-0.9-3.4-1.6-5.2-2.1l-2-9.2
		h-6h-6l-2,9.2c-1.8,0.5-3.5,1.3-5.2,2.1l-7.9-5.1l-4.3,4.3l-4.3,4.3l5.1,7.9c-0.9,1.6-1.6,3.4-2.1,5.2l-9.2,2v6v6l9.2,2
		c0.5,1.8,1.3,3.5,2.1,5.2l-5.1,7.9l4.3,4.3l4.3,4.3l7.9-5.1c1.6,0.9,3.4,1.6,5.2,2.1l2,9.2h6h6l2-9.2c1.8-0.5,3.5-1.3,5.2-2.1
		l7.9,5.1l4.3-4.3l4.3-4.3l-5.1-7.9c0.9-1.6,1.6-3.4,2.1-5.2l9.2-2v-6v-6L138.8,171.5z"/>
	<circle class="st9" cx="112.1" cy="179.6" r="23.3"/>
	<circle class="st10" cx="112.1" cy="179.6" r="6.1"/>
</g>
</svg>
