<?xml version="1.0" encoding="utf-8"?>
<!-- Generator: Adobe Illustrator 24.0.1, SVG Export Plug-In . SVG Version: 6.00 Build 0)  -->
<svg version="1.1" id="Layer_1" xmlns="http://www.w3.org/2000/svg" xmlns:xlink="http://www.w3.org/1999/xlink" x="0px" y="0px"
	 viewBox="0 0 300 260" style="enable-background:new 0 0 300 260;" xml:space="preserve">
<style type="text/css">
	.st0{fill:#FAF2EB;stroke:#000000;stroke-width:2.9273;stroke-miterlimit:10;}
	.st1{fill:#D7D2CD;stroke:#000000;stroke-width:2.9273;stroke-miterlimit:10;}
	.st2{fill:#F0EEE8;stroke:#000000;stroke-width:2.771;stroke-miterlimit:10;}
	.st3{fill:#1E78FF;}
	.st4{fill:none;stroke:#000000;stroke-width:2.9273;stroke-miterlimit:10;}
	.st5{fill:#1E78FF;stroke:#000000;stroke-width:2.9273;stroke-miterlimit:10;}
	.st6{fill:#FFFFFF;}
	.st7{fill:#E69251;stroke:#000000;stroke-width:2.9273;stroke-miterlimit:10;}
	.st8{fill:#FF6F5A;stroke:#000000;stroke-width:2.9273;stroke-miterlimit:10;}
	.st9{fill:#FFCB8B;stroke:#000000;stroke-width:2.9273;stroke-miterlimit:10;}
</style>
<g>
	<rect x="75.3" y="50.2" class="st0" width="100.8" height="140.6"/>
	<rect x="137.9" y="121.6" class="st1" width="28.4" height="32.4"/>
	<rect x="186" y="103.7" class="st0" width="54.8" height="32.3"/>
	
		<rect x="86.6" y="60.8" transform="matrix(0.7071 -0.7071 0.7071 0.7071 -21.0063 87.2942)" class="st2" width="16.5" height="16.5"/>
	<circle class="st3" cx="94.9" cy="68.4" r="3"/>
	<line class="st4" x1="117.9" y1="63.3" x2="166.7" y2="63.3"/>
	<line class="st4" x1="117.9" y1="74.5" x2="166.7" y2="74.5"/>
	<circle class="st3" cx="199.3" cy="115.1" r="4.2"/>
	<line class="st4" x1="210.9" y1="115.1" x2="231.5" y2="115.1"/>
	<line class="st4" x1="210.9" y1="124.2" x2="219.4" y2="124.2"/>
	<line class="st4" x1="152.1" y1="113.9" x2="167.5" y2="113.9"/>
	<g>
		<rect x="114.3" y="146.8" class="st0" width="127" height="73.3"/>
		<path class="st5" d="M241.2,146.8h-54.7h-5.7h-66.4c0,1.2-1.6,20,13,20c11.3,0,40.9,0,53.4,0c3.6,0,5.7,0,5.7,0
			c12.5,0,30.4,0,41.7,0C242.8,166.8,241.2,148,241.2,146.8z"/>
		<circle class="st6" cx="176.3" cy="156.8" r="4.2"/>
		<line class="st4" x1="213.3" y1="196.7" x2="233.9" y2="196.7"/>
		<line class="st4" x1="213.3" y1="210.7" x2="221.8" y2="210.7"/>
		<line class="st4" x1="213.3" y1="203.7" x2="221.8" y2="203.7"/>
		<rect x="123.2" y="196.7" class="st4" width="14.4" height="14.4"/>
	</g>
	<g>
		<rect x="89" y="124.3" class="st7" width="11.8" height="83.9"/>
		<line class="st4" x1="89" y1="198.4" x2="100.8" y2="198.4"/>
		<path class="st8" d="M89,208.2v5.7c0,3.2,2.6,5.9,5.9,5.9c3.2,0,5.9-2.6,5.9-5.9v-5.7H89z"/>
		<polyline class="st9" points="100.8,123.4 94.9,107.3 88.9,123.4 		"/>
	</g>
</g>
</svg>
