<?xml version="1.0" encoding="utf-8"?>
<!-- Generator: Adobe Illustrator 24.0.1, SVG Export Plug-In . SVG Version: 6.00 Build 0)  -->
<svg version="1.1" id="Layer_1" xmlns="http://www.w3.org/2000/svg" xmlns:xlink="http://www.w3.org/1999/xlink" x="0px" y="0px"
	 viewBox="0 0 300 260" style="enable-background:new 0 0 300 260;" xml:space="preserve">
<style type="text/css">
	.st0{fill:#1E78FF;stroke:#000000;stroke-width:3.168;stroke-miterlimit:10;}
	.st1{fill:#FFE573;stroke:#000000;stroke-width:3.168;stroke-miterlimit:10;}
	.st2{fill:none;stroke:#000000;stroke-width:2.9398;stroke-miterlimit:10;stroke-dasharray:14.6827,18.3534;}
	.st3{fill:none;stroke:#000000;stroke-width:3.168;stroke-miterlimit:10;}
	.st4{fill:#00CA49;stroke:#000000;stroke-width:3.168;stroke-miterlimit:10;}
	.st5{fill:#1E78FF;}
	.st6{fill:#1E9AF8;stroke:#000000;stroke-width:3.168;stroke-miterlimit:10;}
</style>
<polygon class="st0" points="170.8,226 133.6,226 126.3,196.6 178.1,196.6 "/>
<circle class="st1" cx="152.3" cy="92.8" r="48.5"/>
<g>
	<circle class="st2" cx="152.3" cy="92.8" r="42.1"/>
</g>
<path class="st3" d="M170.1,146.7c-5.5,1.6-11.2,2.4-17.2,2.4c-6.4,0-12.6-1-18.4-2.8"/>
<line class="st3" x1="152.3" y1="149.1" x2="152.3" y2="184.9"/>
<ellipse transform="matrix(0.5735 -0.8192 0.8192 0.5735 -76.4809 185.9583)" class="st4" cx="140.4" cy="166.4" rx="4.5" ry="12.8"/>
<g>
	
		<ellipse transform="matrix(0.7903 -0.6127 0.6127 0.7903 -62.2978 141.7905)" class="st4" cx="176" cy="161.9" rx="19.4" ry="6.9"/>
	<line class="st4" x1="161.8" y1="173.8" x2="151.4" y2="173.8"/>
</g>
<g>
	<path class="st5" d="M159.2,120.8V115h-9.8v5.7h-6.8v-5.9h-9.1v-6.8h9.1V94.1h-4.8v-6.8h4.8V75.2h-4.8v-6.8h4.8v-4.9h6.8v4.9h5
		v-4.9h6.8v5.2c5.8,1.3,10.2,6.5,10.2,12.6c0,2.7-0.9,5.4-2.5,7.6c4.6,2.3,7.6,7.1,7.6,12.4c0,6.4-4.4,11.9-10.5,13.4v6.2H159.2z
		 M162.6,108.3c3.9,0,7.1-3.2,7.1-7.1c0-3.9-3.2-7.1-7.1-7.1h-13.2v14.2H162.6z M158.4,87.3c3.4,0,6.1-2.7,6.1-6.1s-2.7-6.1-6.1-6.1
		h-9.1v12.2H158.4z"/>
	<path d="M160.1,64.5v5c5.7,0.8,10.2,5.7,10.2,11.7c0,3.1-1.2,5.9-3.1,8c4.8,1.8,8.3,6.5,8.3,12c0,6.3-4.5,11.5-10.5,12.6v6h-4.7
		V114h-11.9v5.7h-4.7v-5.9h-9.1v-4.7h9.1V93h-4.8v-4.7h4.8V74.2h-4.8v-4.7h4.8v-4.9h4.7v4.9h7.1v-4.9H160.1 M148.3,88.4h10.1
		c3.9,0,7.1-3.2,7.1-7.1c0-3.9-3.2-7.1-7.1-7.1h-10.1V88.4 M148.3,109.3h14.3c4.5,0,8.1-3.6,8.1-8.1c0-4.5-3.6-8.1-8.1-8.1h-4.1
		h-10.1V109.3 M162.2,62.5h-2.1h-4.7h-2.1v2.1v2.9h-3v-2.9v-2.1h-2.1h-4.7h-2.1v2.1v2.9h-2.8h-2.1v2.1v4.7v2.1h2.1h2.8v10.1h-2.8
		h-2.1v2.1V93v2.1h2.1h2.8v12h-7.1h-2.1v2.1v4.7v2.1h2.1h7.1v3.8v2.1h2.1h4.7h2.1v-2.1v-3.7h7.8v3.7v2.1h2.1h4.7h2.1v-2.1v-4.4
		c6.2-1.9,10.5-7.6,10.5-14.2c0-5.2-2.8-10.1-7.2-12.7c1.3-2.2,2-4.7,2-7.2c0-6.3-4.3-11.7-10.2-13.4v-3.4V62.5L162.2,62.5z
		 M150.4,76.2h8.1c2.8,0,5.1,2.3,5.1,5.1c0,2.8-2.3,5.1-5.1,5.1h-8.1V76.2L150.4,76.2z M150.4,95.1h8.1h4.1c3.3,0,6.1,2.7,6.1,6.1
		c0,3.3-2.7,6.1-6.1,6.1h-12.2V95.1L150.4,95.1z"/>
</g>
<rect x="118.1" y="183" class="st6" width="68.4" height="14.9"/>
</svg>
