<?xml version="1.0" encoding="utf-8"?>
<!-- Generator: Adobe Illustrator 24.0.0, SVG Export Plug-In . SVG Version: 6.00 Build 0)  -->
<svg version="1.1" id="Layer_1" xmlns="http://www.w3.org/2000/svg" xmlns:xlink="http://www.w3.org/1999/xlink" x="0px" y="0px"
	 viewBox="0 0 414.7 90.8" style="enable-background:new 0 0 414.7 90.8;" xml:space="preserve">
<style type="text/css">
	.st0{fill:#217FFF;}
</style>
<path class="st0" d="M16.4,55.2l4.8-8.3h4.1c3.3,0,5.8-2.5,5.8-5.8V15.3c0-3.3-2.5-5.8-5.8-5.8h-10c-3.3,0-5.8,2.5-5.8,5.8v11
	c-3.1,0.8-5.8,2.5-8.3,4.7V15.3C1.4,7.8,7.6,1.4,15.3,1.4h10c3.8,0,7.2,1.4,10,4.1c2.5,2.8,4.1,6.1,4.1,10v25.9
	c0,7.7-6.4,14.1-14.1,14.1l0,0L16.4,55.2z"/>
<path class="st0" d="M15.3,89.5c-7.7,0-14.1-6.4-14.1-14.1V45.6c0-7.7,6.4-14.1,14.1-14.1h10.3l-4.4,8.3h-5.9
	c-3.3,0-5.8,2.5-5.8,5.8v29.9c0,3.3,2.5,5.8,5.8,5.8h10c1.6,0,3-0.6,4.1-1.7s1.7-2.5,1.7-4.1V60.7c3.1-0.8,5.8-2.5,8.3-4.7v19.4
	c0,7.7-6.4,14.1-14.1,14.1H15.3z"/>
<path class="st0" d="M91.7,7.8C91.5,8,83.4,23,82.3,25.1l0,0c-1-2.1-9.2-17.2-9.4-17.3l0,0h-2.8v25.9h1.8v-0.2c0-0.2,0.2-20.1,0-24
	l9.6,17.3l0,0h1.8l9.6-17.3c0,3.7,0,23.8,0,24v0.2h1.8V7.8H91.7L91.7,7.8z"/>
<path class="st0" d="M407.2,7.8L407.2,7.8C407,8,398.8,23,397.8,25.3l0,0c-1-2.1-9.4-17.2-9.4-17.3l0,0h-2.8v25.9h1.8v-0.2
	c0-0.2,0.2-20.1,0-24L397,27l0,0h1.8l9.6-17.3c0,3.7,0,23.8,0,24l0,0h1.8V7.8H407.2z"/>
<polygon class="st0" points="143.2,7.8 141.4,7.8 141.4,33.8 158.1,33.8 158.1,32 143.2,32 "/>
<rect x="170.8" y="7.8" class="st0" width="1.8" height="25.9"/>
<polygon class="st0" points="361,33.8 378.5,33.8 378.5,32.1 363,32.1 363,21.1 378.2,21.1 378.2,19.8 363,19.8 363,9.3 378.5,9.3 
	378.5,7.8 361,7.8 "/>
<polygon class="st0" points="217.6,33.8 235,33.8 235,32.1 219.4,32.1 219.4,21.1 234.6,21.1 234.6,19.8 219.4,19.8 219.4,9.3 
	235,9.3 235,7.8 217.6,7.8 "/>
<path class="st0" d="M300.1,7.8c0,0.2-7.3,10.2-8.6,12.2l0,0c-1.3-1.9-8.4-12-8.6-12.2l0,0h-2.1l9.7,13.8v12.2h1.8V21.6L302,7.8
	L300.1,7.8L300.1,7.8z"/>
<polygon class="st0" points="332.2,9.3 342.4,9.3 342.4,33.8 344.4,33.8 344.4,9.3 354.8,9.3 354.8,7.8 332.2,7.8 "/>
<path class="st0" d="M204.4,31.2l-3.4-4.7L187.1,7.9l0,0h-1.9v25.9h1.8V10.3l3.4,4.9l13.9,18.6l0,0h2.1v-26h-1.9L204.4,31.2z"/>
<path class="st0" d="M267.4,20.3l-4.9-1.8h-0.2c-2.3-0.8-5.3-1.9-5.3-5c0-2.8,2.9-4.7,7.3-4.7c3.7,0,6.2,1.5,7.6,2.6
	c0,0,0.5,0.5,1,1.1l0.2,0.3v-2.3v-0.2c-2.3-1.9-5.3-3.1-8.7-3.1c-5.3,0-9.2,2.6-9.2,6.3c0,4.1,4.2,5.5,6.6,6.3l4.9,1.8
	c2.9,1.1,5.8,2.1,5.8,5.5c0,3.2-3.2,5.3-8.3,5.3c-3.6,0-6.8-1.1-9.2-3.2l-0.2-0.2v2.1l0,0c2.6,1.8,5.7,2.8,9.4,2.8c6,0,10-2.8,10-7
	C274.4,23.2,271,21.6,267.4,20.3z"/>
<path class="st0" d="M116.7,20.3l-4.9-1.8h-0.2c-2.3-0.8-5.3-1.9-5.3-5c0-2.8,2.9-4.7,7.3-4.7c3.7,0,6.2,1.5,7.6,2.6
	c0,0,0.5,0.5,1,1.1l0.2,0.3v-2.3v-0.2c-2.3-1.9-5.5-3.1-8.9-3.1c-5.3,0-9.2,2.6-9.2,6.3c0,4.1,4.2,5.5,6.6,6.3l4.9,1.8
	c2.9,1.1,5.8,2.1,5.8,5.5c0,3.2-3.2,5.3-8.3,5.3c-3.6,0-6.8-1.1-9.2-3.2l-0.2-0.2v2.1l0,0c2.6,1.8,5.7,2.8,9.4,2.8c6,0,10-2.8,10-7
	C123.5,23.2,120.1,21.6,116.7,20.3z"/>
<path class="st0" d="M320.3,20.3l-4.9-1.8h-0.2c-2.3-0.8-5.3-1.9-5.3-5c0-2.8,2.9-4.7,7.3-4.7c3.7,0,6.2,1.5,7.6,2.6
	c0,0,0.5,0.5,1,1.1l0.2,0.3v-2.3v-0.2c-2.3-1.9-5.3-3.1-8.7-3.1c-5.3,0-9.2,2.6-9.2,6.3c0,4.1,4.2,5.5,6.6,6.3l4.9,1.8
	c2.9,1.1,5.8,2.1,5.8,5.5c0,3.2-3.2,5.3-8.3,5.3c-3.6,0-6.8-1.1-9.2-3.2l-0.2-0.2v2.1l0,0c2.6,1.8,5.7,2.8,9.4,2.8c6,0,10-2.8,10-7
	C327.3,23.2,323.9,21.6,320.3,20.3z"/>
<path class="st0" d="M106,53.5h5.7v25.3h16.2V84H106C106,84,106,53.5,106,53.5z"/>
<path class="st0" d="M211.4,53.5h5.2v14.4h0.2l12-14.4h6.5l-12,13.8L237.7,84h-6L220,71l-3.4,3.9v8.9h-5.2V53.5z"/>
<path class="st0" d="M289.4,53.5h5.3v12.8h15.2V53.5h5.3v30.6h-5.3V71.3h-15.2v12.8h-5.3V53.5z"/>
<path class="st0" d="M345.1,72.8h-10L331,84.1h-5.5L337,53.5h6.3l11.5,30.6H349L345.1,72.8z M343.8,68.2l-3.6-9.4H340l-3.4,9.4
	H343.8z"/>
<path class="st0" d="M365.2,53.5h5.5v30.6h-5.5V53.5z"/>
<path class="st0" d="M160.7,55.8c-1.5-1.5-3.4-2.3-5.5-2.3h-7c-4.4,0-7.9,3.6-7.9,7.8v13.9l0.3-0.3c1.3-1.3,2.9-2.4,4.9-2.9h0.2
	V61.3c0-1.5,1.3-2.8,2.8-2.8h7c1.5,0,2.8,1.1,2.8,2.8v14.9c0,1.5-1.1,2.8-2.8,2.8h-7.3v5.2h7.3c4.4,0,7.8-3.6,7.8-7.8v-15
	C163.1,59.3,162.1,57.4,160.7,55.8z"/>
<path class="st0" d="M276.8,70.8c-1.3,1.3-2.9,2.4-4.9,2.9h-0.2v2.6c0,1.5-1.1,2.8-2.8,2.8h-7.1c-0.8,0-1.5-0.3-2.1-1
	c-0.2-0.2-0.3-0.3-0.3-0.5c-0.2-0.3-0.3-0.8-0.3-1.3V61.4c0-1,0.5-1.8,1.1-2.3c0.5-0.3,1-0.5,1.5-0.5h7.1c1.5,0,2.8,1.1,2.8,2.8V64
	h0.2c0.3-0.2,1.5-0.5,2.6-1.1s1.9-1.8,2.3-2.3l0,0l0,0c0-4.5-4.1-7-7.8-7h-7.1c-3.2,0-6,1.9-7.3,4.9c-0.5,1-0.6,1.9-0.6,3.1v14.9
	c0,2.8,1.5,5.3,3.9,6.8c1.3,0.8,2.6,1.1,4.1,1.1h7.1h0.2c4.2,0,7.8-3.6,7.8-7.8v-6.2v0.4H276.8z"/>
<path class="st0" d="M198.7,70.8c-1.3,1.3-2.9,2.4-4.9,2.9h-0.2v2.6c0,1.5-1.1,2.8-2.8,2.8h-7.1c-0.8,0-1.5-0.3-2.1-1
	c-0.2-0.2-0.3-0.3-0.3-0.5c-0.2-0.3-0.3-0.8-0.3-1.3V61.4c0-1,0.5-1.8,1.1-2.3c0.5-0.3,1-0.5,1.5-0.5h7.1c1.5,0,2.8,1.1,2.8,2.8V64
	h0.2c0.3-0.2,1.3-0.5,2.6-1.1c1.1-0.6,1.9-1.8,2.3-2.3l0,0l0,0c0-4.5-4.1-7-7.8-7h-7.1c-3.2,0-6,1.9-7.3,4.9c-0.5,1-0.6,1.9-0.6,3.1
	v14.9c0,2.8,1.5,5.3,3.9,6.8c1.3,0.8,2.6,1.1,4.1,1.1h7.1h0.2c4.2,0,7.8-3.6,7.8-7.8v-6.2v0.4H198.7z"/>
<polygon class="st0" points="405.3,53.5 405.3,53.5 405.3,77.1 389.4,53.5 383.4,53.5 383.4,84.1 388.6,84.1 388.6,60.5 404.3,84.1 
	410.3,84.1 410.3,53.5 "/>
<path class="st0" d="M87.2,67.8c0.5,0,5.2-0.6,5.2-7c0-3.6-3.2-7.3-7.5-7.3H70.2v30.6h15.9c4.4,0,7.9-3.9,7.9-8.6
	C94.1,69.5,88.8,67.8,87.2,67.8z M88.3,61.4c0,1.1-0.5,2.1-1.3,2.9c-0.8,0.8-1.8,1.3-2.9,1.3h-8.8v-8.3H84
	C86.4,57.2,88.3,59.2,88.3,61.4z M88.3,78.9c-0.8,0.8-1.9,1.3-3.2,1.3h-9.8v-9.4H85c2.6,0,4.7,2.1,4.7,4.7
	C89.8,77,89.1,78.1,88.3,78.9z"/>
</svg>
