<?xml version="1.0" encoding="utf-8"?>
<!-- Generator: Adobe Illustrator 24.0.0, SVG Export Plug-In . SVG Version: 6.00 Build 0)  -->
<svg version="1.1" id="Layer_1" xmlns="http://www.w3.org/2000/svg" xmlns:xlink="http://www.w3.org/1999/xlink" x="0px" y="0px"
	 viewBox="0 0 450 150" style="enable-background:new 0 0 450 150;" xml:space="preserve">
<style type="text/css">
	.st0{fill:#363A3F;}
	.st1{fill:#217FFF;}
</style>
<path class="st0" d="M39.1,86.5l4.8-8.3H48c3.3,0,5.8-2.5,5.8-5.8V46.6c0-3.3-2.5-5.8-5.8-5.8H38c-3.3,0-5.8,2.5-5.8,5.8v11
	c-3.1,0.8-5.8,2.5-8.3,4.7V46.6c0.2-7.5,6.4-13.9,14.1-13.9h10c3.8,0,7.2,1.4,10,4.1c2.5,2.8,4.1,6.1,4.1,10v25.9
	c0,7.7-6.4,14.1-14.1,14.1l0,0L39.1,86.5z"/>
<path class="st1" d="M38,120.8c-7.7,0-14.1-6.4-14.1-14.1V76.9c0-7.7,6.4-14.1,14.1-14.1h10.3l-4.4,8.3H38c-3.3,0-5.8,2.5-5.8,5.8
	v29.9c0,3.3,2.5,5.8,5.8,5.8h10c1.6,0,3-0.6,4.1-1.7s1.7-2.5,1.7-4.1V92c3.1-0.8,5.8-2.5,8.3-4.7v19.4c0,7.7-6.4,14.1-14.1,14.1H38z
	"/>
<path class="st0" d="M109.4,39.1c-0.2,0.2-8.3,15.2-9.4,17.3l0,0c-1-2.1-9.2-17.2-9.4-17.3l0,0h-2.8V65h1.8v-0.2
	c0-0.2,0.2-20.1,0-24l9.6,17.3l0,0h1.8l9.6-17.3c0,3.7,0,23.8,0,24V65h1.8V39.1H109.4L109.4,39.1z"/>
<path class="st0" d="M424.9,39.1L424.9,39.1c-0.2,0.2-8.4,15.2-9.4,17.5l0,0c-1-2.1-9.4-17.2-9.4-17.3l0,0h-2.8v25.9h1.8V65
	c0-0.2,0.2-20.1,0-24l9.6,17.3l0,0h1.8l9.6-17.3c0,3.7,0,23.8,0,24l0,0h1.8V39.1H424.9z"/>
<polygon class="st0" points="160.9,39.1 159.1,39.1 159.1,65.1 175.8,65.1 175.8,63.3 160.9,63.3 "/>
<rect x="188.5" y="39.1" class="st0" width="1.8" height="25.9"/>
<polygon class="st0" points="378.7,65.1 396.2,65.1 396.2,63.4 380.7,63.4 380.7,52.4 395.9,52.4 395.9,51.1 380.7,51.1 380.7,40.6 
	396.2,40.6 396.2,39.1 378.7,39.1 "/>
<polygon class="st0" points="235.3,65.1 252.7,65.1 252.7,63.4 237.1,63.4 237.1,52.4 252.3,52.4 252.3,51.1 237.1,51.1 237.1,40.6 
	252.7,40.6 252.7,39.1 235.3,39.1 "/>
<path class="st0" d="M317.8,39.1c0,0.2-7.3,10.2-8.6,12.2l0,0c-1.3-1.9-8.4-12-8.6-12.2l0,0h-2.1l9.7,13.8v12.2h1.8V52.9l9.7-13.8
	L317.8,39.1L317.8,39.1z"/>
<polygon class="st0" points="349.9,40.6 360.1,40.6 360.1,65.1 362.1,65.1 362.1,40.6 372.5,40.6 372.5,39.1 349.9,39.1 "/>
<path class="st0" d="M222.1,62.5l-3.4-4.7l-13.9-18.6l0,0h-1.9v25.9h1.8V41.6l3.4,4.9L222,65.1l0,0h2.1v-26h-1.9L222.1,62.5z"/>
<path class="st0" d="M285.1,51.6l-4.9-1.8H280c-2.3-0.8-5.3-1.9-5.3-5c0-2.8,2.9-4.7,7.3-4.7c3.7,0,6.2,1.5,7.6,2.6
	c0,0,0.5,0.5,1,1.1l0.2,0.3v-2.3v-0.2c-2.3-1.9-5.3-3.1-8.7-3.1c-5.3,0-9.2,2.6-9.2,6.3c0,4.1,4.2,5.5,6.6,6.3l4.9,1.8
	c2.9,1.1,5.8,2.1,5.8,5.5c0,3.2-3.2,5.3-8.3,5.3c-3.6,0-6.8-1.1-9.2-3.2l-0.2-0.2v2.1l0,0c2.6,1.8,5.7,2.8,9.4,2.8c6,0,10-2.8,10-7
	C292.1,54.5,288.7,52.9,285.1,51.6z"/>
<path class="st0" d="M134.4,51.6l-4.9-1.8h-0.2c-2.3-0.8-5.3-1.9-5.3-5c0-2.8,2.9-4.7,7.3-4.7c3.7,0,6.2,1.5,7.6,2.6
	c0,0,0.5,0.5,1,1.1l0.2,0.3v-2.3v-0.2c-2.3-1.9-5.5-3.1-8.9-3.1c-5.3,0-9.2,2.6-9.2,6.3c0,4.1,4.2,5.5,6.6,6.3l4.9,1.8
	c2.9,1.1,5.8,2.1,5.8,5.5c0,3.2-3.2,5.3-8.3,5.3c-3.6,0-6.8-1.1-9.2-3.2l-0.2-0.2v2.1l0,0c2.6,1.8,5.7,2.8,9.4,2.8c6,0,10-2.8,10-7
	C141.2,54.5,137.8,52.9,134.4,51.6z"/>
<path class="st0" d="M338,51.6l-4.9-1.8h-0.2c-2.3-0.8-5.3-1.9-5.3-5c0-2.8,2.9-4.7,7.3-4.7c3.7,0,6.2,1.5,7.6,2.6
	c0,0,0.5,0.5,1,1.1l0.2,0.3v-2.3v-0.2c-2.3-1.9-5.3-3.1-8.7-3.1c-5.3,0-9.2,2.6-9.2,6.3c0,4.1,4.2,5.5,6.6,6.3l4.9,1.8
	c2.9,1.1,5.8,2.1,5.8,5.5c0,3.2-3.2,5.3-8.3,5.3c-3.6,0-6.8-1.1-9.2-3.2l-0.2-0.2v2.1l0,0c2.6,1.8,5.7,2.8,9.4,2.8c6,0,10-2.8,10-7
	C345,54.5,341.6,52.9,338,51.6z"/>
<path class="st1" d="M123.7,84.8h5.7v25.3h16.2v5.2h-21.9C123.7,115.3,123.7,84.8,123.7,84.8z"/>
<path class="st1" d="M229.1,84.8h5.2v14.4h0.2l12-14.4h6.5l-12,13.8l14.4,16.7h-6l-11.7-13l-3.4,3.9v8.9h-5.2V84.8z"/>
<path class="st1" d="M307.1,84.8h5.3v12.8h15.2V84.8h5.3v30.6h-5.3v-12.8h-15.2v12.8h-5.3V84.8z"/>
<path class="st1" d="M362.8,104.1h-10l-4.1,11.3h-5.5l11.5-30.6h6.3l11.5,30.6h-5.8L362.8,104.1z M361.5,99.5l-3.6-9.4h-0.2
	l-3.4,9.4H361.5z"/>
<path class="st1" d="M382.9,84.8h5.5v30.6h-5.5V84.8z"/>
<path class="st0" d="M178.4,87.1c-1.5-1.5-3.4-2.3-5.5-2.3h-7c-4.4,0-7.9,3.6-7.9,7.8v13.9l0.3-0.3c1.3-1.3,2.9-2.4,4.9-2.9h0.2
	V92.6c0-1.5,1.3-2.8,2.8-2.8h7c1.5,0,2.8,1.1,2.8,2.8v14.9c0,1.5-1.1,2.8-2.8,2.8h-7.3v5.2h7.3c4.4,0,7.8-3.6,7.8-7.8v-15
	C180.8,90.6,179.8,88.7,178.4,87.1z"/>
<path class="st1" d="M294.5,102.1c-1.3,1.3-2.9,2.4-4.9,2.9h-0.2v2.6c0,1.5-1.1,2.8-2.8,2.8h-7.1c-0.8,0-1.5-0.3-2.1-1
	c-0.2-0.2-0.3-0.3-0.3-0.5c-0.2-0.3-0.3-0.8-0.3-1.3V92.7c0-1,0.5-1.8,1.1-2.3c0.5-0.3,1-0.5,1.5-0.5h7.1c1.5,0,2.8,1.1,2.8,2.8v2.6
	h0.2c0.3-0.2,1.5-0.5,2.6-1.1s1.9-1.8,2.3-2.3l0,0l0,0c0-4.5-4.1-7-7.8-7h-7.1c-3.2,0-6,1.9-7.3,4.9c-0.5,1-0.6,1.9-0.6,3.1v14.9
	c0,2.8,1.5,5.3,3.9,6.8c1.3,0.8,2.6,1.1,4.1,1.1h7.1h0.2c4.2,0,7.8-3.6,7.8-7.8v-6.2v0.4H294.5z"/>
<path class="st1" d="M216.4,102.1c-1.3,1.3-2.9,2.4-4.9,2.9h-0.2v2.6c0,1.5-1.1,2.8-2.8,2.8h-7.1c-0.8,0-1.5-0.3-2.1-1
	c-0.2-0.2-0.3-0.3-0.3-0.5c-0.2-0.3-0.3-0.8-0.3-1.3V92.7c0-1,0.5-1.8,1.1-2.3c0.5-0.3,1-0.5,1.5-0.5h7.1c1.5,0,2.8,1.1,2.8,2.8v2.6
	h0.2c0.3-0.2,1.3-0.5,2.6-1.1c1.1-0.6,1.9-1.8,2.3-2.3l0,0l0,0c0-4.5-4.1-7-7.8-7h-7.1c-3.2,0-6,1.9-7.3,4.9c-0.5,1-0.6,1.9-0.6,3.1
	v14.9c0,2.8,1.5,5.3,3.9,6.8c1.3,0.8,2.6,1.1,4.1,1.1h7.1h0.2c4.2,0,7.8-3.6,7.8-7.8v-6.2v0.4H216.4z"/>
<polygon class="st1" points="423,84.8 423,84.8 423,108.4 407.1,84.8 401.1,84.8 401.1,115.4 406.3,115.4 406.3,91.8 422,115.4 
	428,115.4 428,84.8 "/>
<path class="st1" d="M104.9,99.1c0.5,0,5.2-0.6,5.2-7c0-3.6-3.2-7.3-7.5-7.3H87.9v30.6h15.9c4.4,0,7.9-3.9,7.9-8.6
	C111.8,100.8,106.5,99.1,104.9,99.1z M106,92.7c0,1.1-0.5,2.1-1.3,2.9s-1.8,1.3-2.9,1.3H93v-8.3h8.7C104.1,88.5,106,90.5,106,92.7z
	 M106,110.2c-0.8,0.8-1.9,1.3-3.2,1.3H93v-9.4h9.7c2.6,0,4.7,2.1,4.7,4.7C107.5,108.3,106.8,109.4,106,110.2z"/>
</svg>
