<?xml version="1.0" encoding="utf-8"?>
<!-- Generator: Adobe Illustrator 24.1.1, SVG Export Plug-In . SVG Version: 6.00 Build 0)  -->
<svg version="1.1" id="Layer_1" xmlns="http://www.w3.org/2000/svg" xmlns:xlink="http://www.w3.org/1999/xlink" x="0px" y="0px"
	 viewBox="0 0 414.7 90.8" style="enable-background:new 0 0 414.7 90.8;" xml:space="preserve">
<style type="text/css">
	.st0{fill:#363A3F;}
	.st1{fill:#217FFF;}
</style>
<path id="cblack" class="st0" d="M16.4,55.2l4.8-8.3h4.1c3.3,0,5.8-2.5,5.8-5.8V15.3c0-3.3-2.5-5.8-5.8-5.8h-10
	c-3.3,0-5.8,2.5-5.8,5.8v11c-3.1,0.8-5.8,2.5-8.3,4.7V15.3C1.4,7.8,7.6,1.4,15.3,1.4h10c3.8,0,7.2,1.4,10,4.1
	c2.5,2.8,4.1,6.1,4.1,10v25.9c0,7.7-6.4,14.1-14.1,14.1l0,0L16.4,55.2z"/>
<path id="cblue" class="st1" d="M15.3,89.5c-7.7,0-14.1-6.4-14.1-14.1V45.6c0-7.7,6.4-14.1,14.1-14.1h10.3l-4.4,8.3h-5.9
	c-3.3,0-5.8,2.5-5.8,5.8v29.9c0,3.3,2.5,5.8,5.8,5.8h10c1.6,0,3-0.6,4.1-1.7s1.7-2.5,1.7-4.1V60.7c3.1-0.8,5.8-2.5,8.3-4.7v19.4
	c0,7.7-6.4,14.1-14.1,14.1H15.3z"/>

<path id="fM" class="st0" d="M91.7,34.5c-0.2,0.2-8.3,15.2-9.4,17.3l0,0c-1-2.1-9.2-17.2-9.4-17.3l0,0h-2.8v25.9h1.8v-0.2
	c0-0.2,0.2-20.1,0-24l9.6,17.3l0,0h1.8l9.6-17.3c0,3.7,0,23.8,0,24v0.2h1.8V34.5H91.7L91.7,34.5z"/>

	<path id="fS" class="st0" d="M116.7,47l-4.9-1.8h-0.2c-2.3-0.8-5.3-1.9-5.3-5c0-2.8,2.9-4.7,7.3-4.7c3.7,0,6.2,1.5,7.6,2.6
	c0,0,0.5,0.5,1,1.1l0.2,0.3v-2.3V37c-2.3-1.9-5.5-3.1-8.9-3.1c-5.3,0-9.2,2.6-9.2,6.3c0,4.1,4.2,5.5,6.6,6.3l4.9,1.8
	c2.9,1.1,5.8,2.1,5.8,5.5c0,3.2-3.2,5.3-8.3,5.3c-3.6,0-6.8-1.1-9.2-3.2l-0.2-0.2v2.1l0,0c2.6,1.8,5.7,2.8,9.4,2.8c6,0,10-2.8,10-7
	C123.5,49.9,120.1,48.3,116.7,47z"/>

	<polygon id="L" class="st0" points="135.2,34.5 133.4,34.5 133.4,60.5 150.1,60.5 150.1,58.7 135.2,58.7 "/>

<rect id="I" x="162.8" y="34.5" class="st0" width="1.8" height="25.9"/>



	<path id="N" class="st0" d="M196.4,57.9l-3.4-4.7l-13.9-18.6l0,0h-1.9v25.9h1.8V37l3.4,4.9l13.9,18.6l0,0h2.1v-26h-1.9L196.4,57.9z"
	/>

<polygon id="fE" class="st0" points="209.6,60.5 227,60.5 227,58.8 211.4,58.8 211.4,47.8 226.6,47.8 226.6,46.5 211.4,46.5 
	211.4,36 227,36 227,34.5 209.6,34.5 "/>

	<path id="sS" class="st0" d="M262.4,47l-4.9-1.8h-0.2c-2.3-0.8-5.3-1.9-5.3-5c0-2.8,2.9-4.7,7.3-4.7c3.7,0,6.2,1.5,7.6,2.6
	c0,0,0.5,0.5,1,1.1l0.2,0.3v-2.3V37c-2.3-1.9-5.3-3.1-8.7-3.1c-5.3,0-9.2,2.6-9.2,6.3c0,4.1,4.2,5.5,6.6,6.3l4.9,1.8
	c2.9,1.1,5.8,2.1,5.8,5.5c0,3.2-3.2,5.3-8.3,5.3c-3.6,0-6.8-1.1-9.2-3.2l-0.2-0.2v2.1l0,0c2.6,1.8,5.7,2.8,9.4,2.8c6,0,10-2.8,10-7
	C269.4,49.9,266,48.3,262.4,47z"/>

<path id="Y" class="st0" d="M295.1,34.5c0,0.2-7.3,10.2-8.6,12.2l0,0c-1.3-1.9-8.4-12-8.6-12.2l0,0h-2.1l9.7,13.8v12.2h1.8V48.3
	l9.7-13.8H295.1L295.1,34.5z"/>

	<path id="lS" class="st0" d="M315.3,47l-4.9-1.8h-0.2c-2.3-0.8-5.3-1.9-5.3-5c0-2.8,2.9-4.7,7.3-4.7c3.7,0,6.2,1.5,7.6,2.6
	c0,0,0.5,0.5,1,1.1l0.2,0.3v-2.3V37c-2.3-1.9-5.3-3.1-8.7-3.1c-5.3,0-9.2,2.6-9.2,6.3c0,4.1,4.2,5.5,6.6,6.3l4.9,1.8
	c2.9,1.1,5.8,2.1,5.8,5.5c0,3.2-3.2,5.3-8.3,5.3c-3.6,0-6.8-1.1-9.2-3.2l-0.2-0.2v2.1l0,0c2.6,1.8,5.7,2.8,9.4,2.8c6,0,10-2.8,10-7
	C322.3,49.9,318.9,48.3,315.3,47z"/>

<polygon id="T" class="st0" points="327.2,36 337.4,36 337.4,60.5 339.4,60.5 339.4,36 349.8,36 349.8,34.5 327.2,34.5 "/>

<polygon id="lE" class="st0" points="356,60.5 373.5,60.5 373.5,58.8 358,58.8 358,47.8 373.2,47.8 373.2,46.5 358,46.5 358,36 
	373.5,36 373.5,34.5 356,34.5 "/>

<path id="lM" class="st0" d="M402.2,34.5L402.2,34.5c-0.2,0.2-8.4,15.2-9.4,17.5l0,0c-1-2.1-9.4-17.2-9.4-17.3l0,0h-2.8v25.9h1.8
	v-0.2c0-0.2,0.2-20.1,0-24l9.6,17.3l0,0h1.8l9.6-17.3c0,3.7,0,23.8,0,24l0,0h1.8V34.5H402.2z"/>

</svg>
