<?xml version="1.0" encoding="utf-8"?>
<!-- Generator: Adobe Illustrator 24.0.1, SVG Export Plug-In . SVG Version: 6.00 Build 0)  -->
<svg version="1.1" id="Layer_1" xmlns="http://www.w3.org/2000/svg" xmlns:xlink="http://www.w3.org/1999/xlink" x="0px" y="0px"
	 viewBox="0 0 440 150" style="enable-background:new 0 0 440 150;" xml:space="preserve">
<style type="text/css">
	.st0{fill:url(#SVGID_1_);}
	.st1{fill:url(#SVGID_2_);}
	.st2{fill:url(#SVGID_3_);}
	.st3{fill:url(#SVGID_4_);}
	.st4{fill:url(#SVGID_5_);}
	.st5{fill:url(#SVGID_6_);}
	.st6{fill:url(#SVGID_7_);}
	.st7{fill:url(#SVGID_8_);}
	.st8{fill:url(#SVGID_9_);}
	.st9{fill:url(#SVGID_10_);}
	.st10{fill:url(#SVGID_11_);}
	.st11{fill:url(#SVGID_12_);}
	.st12{fill:url(#SVGID_13_);}
	.st13{fill:url(#SVGID_14_);}
	.st14{fill:url(#SVGID_15_);}
	.st15{fill:url(#SVGID_16_);}
	.st16{fill:url(#SVGID_17_);}
	.st17{display:none;}
	.st18{display:inline;}
	.st19{fill:#FF3C64;}
	.st20{fill:#C3A5A5;}
	.st21{fill:#AF9191;}
</style>
<g>
	<g>
		
			<linearGradient id="SVGID_1_" gradientUnits="userSpaceOnUse" x1="-36.5459" y1="118.7555" x2="38.2767" y2="27.6649" gradientTransform="matrix(1 0 0 -1 0 152)">
			<stop  offset="0" style="stop-color:#14AAFF"/>
			<stop  offset="1" style="stop-color:#0A3CF0"/>
		</linearGradient>
		<polygon class="st0" points="10.4,68.7 10.4,130.1 41.7,130.1 41.7,88.8 41.7,88.8 		"/>
		
			<linearGradient id="SVGID_2_" gradientUnits="userSpaceOnUse" x1="4.7602" y1="153.2198" x2="79.5537" y2="62.1647" gradientTransform="matrix(1 0 0 -1 0 152)">
			<stop  offset="0" style="stop-color:#14AAFF"/>
			<stop  offset="1" style="stop-color:#0A3CF0"/>
		</linearGradient>
		<polygon class="st1" points="10.3,19.8 10.3,58 126.9,133.2 126.9,95 		"/>
		
			<linearGradient id="SVGID_3_" gradientUnits="userSpaceOnUse" x1="45.9977" y1="184.7174" x2="119.3995" y2="95.3567" gradientTransform="matrix(1 0 0 -1 0 152)">
			<stop  offset="0" style="stop-color:#14AAFF"/>
			<stop  offset="1" style="stop-color:#0A3CF0"/>
		</linearGradient>
		<polygon class="st2" points="126.9,19.7 79.3,53.9 126.9,84.3 		"/>
	</g>
	<g>
		
			<linearGradient id="SVGID_4_" gradientUnits="userSpaceOnUse" x1="134.6455" y1="142.1753" x2="328.339" y2="33.0026" gradientTransform="matrix(1 0 0 -1 0 152)">
			<stop  offset="0" style="stop-color:#14AAFF"/>
			<stop  offset="1" style="stop-color:#0A3CF0"/>
		</linearGradient>
		<polygon class="st3" points="218.8,65.9 218.8,25.9 210.5,25.9 198.6,48.7 186.8,25.9 178.5,25.9 178.5,65.9 186.2,65.9 
			186.2,39.4 196.5,59.1 200.7,59.1 211,39.4 211,65.9 		"/>
		
			<linearGradient id="SVGID_5_" gradientUnits="userSpaceOnUse" x1="142.9123" y1="156.8422" x2="336.6058" y2="47.6695" gradientTransform="matrix(1 0 0 -1 0 152)">
			<stop  offset="0" style="stop-color:#14AAFF"/>
			<stop  offset="1" style="stop-color:#0A3CF0"/>
		</linearGradient>
		<path class="st4" d="M243.9,25.9H237l-15.2,39.9h8l3.7-10h13.9l3.7,10h8L243.9,25.9z M234.8,50.5l5.7-15.7l5.5,15.7H234.8z"/>
		
			<linearGradient id="SVGID_6_" gradientUnits="userSpaceOnUse" x1="152.9233" y1="174.6036" x2="346.6168" y2="65.431" gradientTransform="matrix(1 0 0 -1 0 152)">
			<stop  offset="0" style="stop-color:#14AAFF"/>
			<stop  offset="1" style="stop-color:#0A3CF0"/>
		</linearGradient>
		<path class="st5" d="M289.5,59.9c0.8-1.5,1.2-3.3,1.2-5.5c0-1.8-0.3-3.4-0.9-4.6c-0.6-1.3-1.5-2.3-2.6-3.2s-2.5-1.6-4-2.2
			c-1.6-0.6-3.4-1.2-5.3-1.7c-1.5-0.4-2.8-0.7-4-1.1c-1.1-0.3-2.1-0.7-2.8-1.1c-0.8-0.4-1.3-0.9-1.7-1.4c-0.4-0.5-0.6-1.2-0.6-2.1
			c0-1.4,0.5-2.5,1.6-3.3s2.6-1.2,4.8-1.2c1.2,0,2.4,0.2,3.5,0.5c1.2,0.3,2.2,0.7,3.2,1.1c1,0.4,1.8,0.9,2.5,1.3
			c0.7,0.4,1.2,0.8,1.4,1.1l3.4-6.3c-1.8-1.2-3.8-2.2-6.2-3.1c-2.4-0.9-5-1.3-7.8-1.3c-2,0-3.9,0.3-5.7,0.8
			c-1.8,0.5-3.3,1.3-4.6,2.4c-1.3,1.1-2.4,2.4-3.1,3.9c-0.8,1.6-1.1,3.4-1.1,5.4c0,1.5,0.2,2.9,0.7,4s1.2,2.1,2.1,2.9
			c0.9,0.8,2.1,1.6,3.5,2.2c1.4,0.6,3.1,1.2,5,1.7c1.6,0.4,3,0.9,4.3,1.2c1.3,0.4,2.4,0.8,3.3,1.2s1.6,1,2.1,1.6s0.7,1.3,0.7,2.2
			c0,2.7-2.1,4.1-6.4,4.1c-1.5,0-3-0.2-4.5-0.6c-1.5-0.4-2.8-0.8-4-1.4c-1.2-0.5-2.2-1.1-3.1-1.6c-0.9-0.5-1.5-1-1.8-1.3l-3.4,6.7
			c2.3,1.7,4.9,2.9,7.9,3.8c2.9,0.9,5.9,1.3,8.9,1.3c2,0,3.8-0.2,5.6-0.6c1.8-0.4,3.4-1.1,4.7-2.1C287.6,62.7,288.7,61.5,289.5,59.9
			z"/>
		
			<linearGradient id="SVGID_7_" gradientUnits="userSpaceOnUse" x1="162.6486" y1="191.8581" x2="356.342" y2="82.6854" gradientTransform="matrix(1 0 0 -1 0 152)">
			<stop  offset="0" style="stop-color:#14AAFF"/>
			<stop  offset="1" style="stop-color:#0A3CF0"/>
		</linearGradient>
		<polygon class="st6" points="291.8,32.7 304.6,32.7 304.6,65.9 312.3,65.9 312.3,32.7 325,32.7 325,25.9 291.8,25.9 		"/>
		
			<linearGradient id="SVGID_8_" gradientUnits="userSpaceOnUse" x1="169.2545" y1="203.5784" x2="362.948" y2="94.4057" gradientTransform="matrix(1 0 0 -1 0 152)">
			<stop  offset="0" style="stop-color:#14AAFF"/>
			<stop  offset="1" style="stop-color:#0A3CF0"/>
		</linearGradient>
		<polygon class="st7" points="336.3,48.7 353.2,48.7 353.2,42.4 336.3,42.4 336.3,32.7 355.8,32.7 355.8,25.9 328.6,25.9 
			328.6,65.9 356.3,65.9 356.3,59.1 336.3,59.1 		"/>
		
			<linearGradient id="SVGID_9_" gradientUnits="userSpaceOnUse" x1="176.2976" y1="216.0741" x2="369.991" y2="106.9014" gradientTransform="matrix(1 0 0 -1 0 152)">
			<stop  offset="0" style="stop-color:#14AAFF"/>
			<stop  offset="1" style="stop-color:#0A3CF0"/>
		</linearGradient>
		<path class="st8" d="M389.4,46.3c1.3-2.1,1.9-4.5,1.9-7.1c0-1.6-0.3-3.2-1-4.8c-0.6-1.6-1.5-3-2.6-4.3s-2.5-2.3-4-3
			c-1.6-0.8-3.3-1.2-5.1-1.2H361v39.9h7.8V52.5h7.6l8.2,13.4h8.7l-9.1-15C386.4,49.9,388.1,48.4,389.4,46.3z M383.1,41.7
			c-0.3,0.8-0.6,1.5-1.1,2.1s-1,1-1.6,1.4c-0.6,0.3-1.3,0.5-2,0.5h-9.7v-13h9.4c0.7,0,1.3,0.2,2,0.5s1.2,0.8,1.7,1.3
			c0.5,0.6,0.9,1.3,1.2,2.1c0.3,0.8,0.5,1.7,0.5,2.6C383.5,40.1,383.4,41,383.1,41.7z"/>
	</g>
	<g>
		
			<linearGradient id="SVGID_10_" gradientUnits="userSpaceOnUse" x1="111.2043" y1="94.6203" x2="302.0016" y2="-12.92" gradientTransform="matrix(1 0 0 -1 0 152)">
			<stop  offset="0" style="stop-color:#14AAFF"/>
			<stop  offset="1" style="stop-color:#0A3CF0"/>
		</linearGradient>
		<polygon class="st9" points="205.5,115.8 182.6,87 180,87 180,121.6 183.4,121.6 183.4,93.3 205.9,121.6 208.9,121.6 208.9,87 
			205.5,87 		"/>
		
			<linearGradient id="SVGID_11_" gradientUnits="userSpaceOnUse" x1="119.8644" y1="109.985" x2="310.6617" y2="2.4447" gradientTransform="matrix(1 0 0 -1 0 152)">
			<stop  offset="0" style="stop-color:#14AAFF"/>
			<stop  offset="1" style="stop-color:#0A3CF0"/>
		</linearGradient>
		<path class="st10" d="M242.1,92.3c-1.4-1.7-3.1-3-5.1-4s-4.2-1.5-6.6-1.5c-2.3,0-4.5,0.5-6.4,1.4c-2,1-3.7,2.3-5.2,3.9
			s-2.6,3.5-3.4,5.6c-0.8,2.1-1.2,4.3-1.2,6.6c0,2.2,0.4,4.4,1.2,6.5s1.9,4,3.3,5.6c1.4,1.6,3.1,3,5.1,3.9c2,1,4.2,1.5,6.6,1.5
			c2.3,0,4.5-0.5,6.4-1.4c2-1,3.7-2.2,5.1-3.9c1.4-1.6,2.6-3.5,3.4-5.6c0.8-2.1,1.2-4.3,1.2-6.6c0-2.2-0.4-4.3-1.2-6.4
			C244.6,95.8,243.5,93.9,242.1,92.3z M242.2,109.5c-0.6,1.7-1.5,3.3-2.6,4.6c-1.1,1.4-2.5,2.5-4,3.3c-1.6,0.8-3.4,1.3-5.3,1.3
			c-1.9,0-3.7-0.4-5.2-1.2c-1.6-0.8-2.9-1.9-4-3.2c-1.1-1.3-2-2.9-2.6-4.6s-0.9-3.6-0.9-5.4s0.3-3.5,0.9-5.3
			c0.6-1.7,1.5-3.3,2.6-4.6c1.1-1.4,2.5-2.5,4-3.3c1.6-0.8,3.4-1.2,5.3-1.2c1.9,0,3.6,0.4,5.2,1.2c1.6,0.8,2.9,1.9,4,3.2
			c1.1,1.3,2,2.9,2.7,4.6c0.6,1.7,1,3.6,1,5.4C243.2,106.1,242.8,107.8,242.2,109.5z"/>
		
			<linearGradient id="SVGID_12_" gradientUnits="userSpaceOnUse" x1="127.0651" y1="122.7603" x2="317.8623" y2="15.2201" gradientTransform="matrix(1 0 0 -1 0 152)">
			<stop  offset="0" style="stop-color:#14AAFF"/>
			<stop  offset="1" style="stop-color:#0A3CF0"/>
		</linearGradient>
		<path class="st11" d="M275.9,92c-1.4-1.6-3.1-2.8-5.2-3.7c-2.1-0.9-4.5-1.4-7.2-1.4h-11.8v34.6h11.8c2.5,0,4.8-0.4,6.9-1.2
			c2-0.8,3.8-2,5.2-3.5c1.4-1.5,2.6-3.3,3.3-5.5c0.8-2.1,1.2-4.5,1.2-7.1c0-2.4-0.3-4.6-1-6.7C278.4,95.4,277.3,93.6,275.9,92z
			 M275.8,109.9c-0.6,1.7-1.4,3.3-2.5,4.5c-1.1,1.3-2.5,2.3-4.1,3s-3.5,1.1-5.7,1.1h-8.3V90h8.3c2.1,0,4,0.3,5.6,1
			c1.6,0.7,3,1.7,4.1,3s2,2.8,2.6,4.5s0.9,3.6,0.9,5.7C276.7,106.3,276.4,108.2,275.8,109.9z"/>
		
			<linearGradient id="SVGID_13_" gradientUnits="userSpaceOnUse" x1="135.8802" y1="138.4002" x2="326.6776" y2="30.8599" gradientTransform="matrix(1 0 0 -1 0 152)">
			<stop  offset="0" style="stop-color:#14AAFF"/>
			<stop  offset="1" style="stop-color:#0A3CF0"/>
		</linearGradient>
		<polygon class="st12" points="288.8,105.3 305.8,105.3 305.8,102.5 288.8,102.5 288.8,90 308.2,90 308.2,87 285.4,87 285.4,121.6 
			308.7,121.6 308.7,118.6 288.8,118.6 		"/>
		
			<linearGradient id="SVGID_14_" gradientUnits="userSpaceOnUse" x1="129.5449" y1="156.2882" x2="320.3422" y2="48.7479" gradientTransform="matrix(1 0 0 -1 0 152)">
			<stop  offset="0" style="stop-color:#14AAFF"/>
			<stop  offset="1" style="stop-color:#0A3CF0"/>
		</linearGradient>
		<path class="st13" d="M335.3,90.4c-0.9-1-2-1.9-3.2-2.5c-1.3-0.6-2.6-1-4.1-1h-14.3v34.6h3.4v-12.8h11.2c1.5,0,2.9-0.3,4.1-0.9
			s2.3-1.4,3.1-2.4c0.9-1,1.6-2.2,2-3.5c0.5-1.3,0.7-2.7,0.7-4.1c0-1.3-0.3-2.6-0.8-4C336.9,92.6,336.2,91.4,335.3,90.4z
			 M334.3,100.8c-0.3,1-0.8,1.8-1.4,2.5s-1.3,1.3-2.1,1.8c-0.8,0.4-1.7,0.7-2.8,0.7h-11V90h10.8c0.9,0,1.8,0.2,2.7,0.6
			c0.9,0.4,1.6,1,2.2,1.7s1.1,1.6,1.5,2.5s0.6,2,0.6,3C334.8,98.9,334.6,99.9,334.3,100.8z"/>
		
			<linearGradient id="SVGID_15_" gradientUnits="userSpaceOnUse" x1="137.8551" y1="171.032" x2="328.6523" y2="63.4918" gradientTransform="matrix(1 0 0 -1 0 152)">
			<stop  offset="0" style="stop-color:#14AAFF"/>
			<stop  offset="1" style="stop-color:#0A3CF0"/>
		</linearGradient>
		<path class="st14" d="M368.4,92.3c-1.4-1.7-3.1-3-5.1-4s-4.2-1.5-6.6-1.5c-2.3,0-4.5,0.5-6.4,1.4c-2,1-3.7,2.3-5.2,3.9
			s-2.6,3.5-3.4,5.6s-1.2,4.3-1.2,6.6c0,2.2,0.4,4.4,1.2,6.5c0.8,2.1,1.9,4,3.3,5.6s3.1,3,5.1,3.9c2,1,4.2,1.5,6.6,1.5
			c2.3,0,4.5-0.5,6.4-1.4c2-1,3.7-2.2,5.1-3.9c1.4-1.6,2.6-3.5,3.4-5.6s1.2-4.3,1.2-6.6c0-2.2-0.4-4.3-1.2-6.4
			C370.9,95.8,369.8,93.9,368.4,92.3z M368.5,109.5c-0.6,1.7-1.5,3.3-2.6,4.6c-1.1,1.4-2.5,2.5-4,3.3c-1.6,0.8-3.4,1.3-5.3,1.3
			s-3.7-0.4-5.2-1.2s-2.9-1.9-4-3.2c-1.1-1.3-2-2.9-2.6-4.6s-0.9-3.6-0.9-5.4s0.3-3.5,0.9-5.3c0.6-1.7,1.5-3.3,2.6-4.6
			c1.1-1.4,2.5-2.5,4-3.3c1.6-0.8,3.4-1.2,5.3-1.2s3.6,0.4,5.2,1.2c1.6,0.8,2.9,1.9,4,3.2c1.1,1.3,2,2.9,2.7,4.6
			c0.6,1.7,1,3.6,1,5.4C369.4,106.1,369.1,107.8,368.5,109.5z"/>
		
			<linearGradient id="SVGID_16_" gradientUnits="userSpaceOnUse" x1="146.3898" y1="186.1743" x2="337.1871" y2="78.634" gradientTransform="matrix(1 0 0 -1 0 152)">
			<stop  offset="0" style="stop-color:#14AAFF"/>
			<stop  offset="1" style="stop-color:#0A3CF0"/>
		</linearGradient>
		<path class="st15" d="M403.8,92.3c-1.4-1.7-3.1-3-5.1-4s-4.2-1.5-6.6-1.5c-2.3,0-4.5,0.5-6.4,1.4c-2,1-3.7,2.3-5.2,3.9
			s-2.6,3.5-3.4,5.6s-1.2,4.3-1.2,6.6c0,2.2,0.4,4.4,1.2,6.5c0.8,2.1,1.9,4,3.3,5.6s3.1,3,5.1,3.9c2,1,4.2,1.5,6.6,1.5
			c2.3,0,4.5-0.5,6.4-1.4c2-1,3.7-2.2,5.1-3.9c1.4-1.6,2.6-3.5,3.4-5.6s1.2-4.3,1.2-6.6c0-2.2-0.4-4.3-1.2-6.4
			C406.3,95.8,405.2,93.9,403.8,92.3z M403.9,109.5c-0.6,1.7-1.5,3.3-2.6,4.6c-1.1,1.4-2.5,2.5-4,3.3c-1.6,0.8-3.4,1.3-5.3,1.3
			s-3.7-0.4-5.2-1.2c-1.6-0.8-2.9-1.9-4-3.2c-1.1-1.3-2-2.9-2.6-4.6s-0.9-3.6-0.9-5.4s0.3-3.5,0.9-5.3c0.6-1.7,1.5-3.3,2.6-4.6
			c1.1-1.4,2.5-2.5,4-3.3c1.6-0.8,3.4-1.2,5.3-1.2s3.6,0.4,5.2,1.2c1.6,0.8,2.9,1.9,4,3.2c1.1,1.3,2,2.9,2.7,4.6
			c0.6,1.7,1,3.6,1,5.4C404.8,106.1,404.5,107.8,403.9,109.5z"/>
		
			<linearGradient id="SVGID_17_" gradientUnits="userSpaceOnUse" x1="151.9663" y1="196.0681" x2="342.7635" y2="88.5278" gradientTransform="matrix(1 0 0 -1 0 152)">
			<stop  offset="0" style="stop-color:#14AAFF"/>
			<stop  offset="1" style="stop-color:#0A3CF0"/>
		</linearGradient>
		<polygon class="st16" points="416.9,118.6 416.9,87 413.5,87 413.5,121.6 436.9,121.6 436.9,118.6 		"/>
	</g>
</g>
<g class="st17">
	<g class="st18">
		<path class="st19" d="M173.1,122.9V88.2h14.4c1.5,0,2.9,0.3,4.1,1c1.3,0.6,2.3,1.5,3.2,2.5s1.6,2.2,2.1,3.5s0.8,2.6,0.8,4
			s-0.2,2.8-0.7,4.1c-0.5,1.3-1.2,2.5-2.1,3.5c-0.9,1-1.9,1.8-3.2,2.4c-1.2,0.6-2.6,0.9-4.1,0.9h-11.2v12.8H173.1z M176.5,107.1
			h11.1c1,0,1.9-0.2,2.8-0.7c0.8-0.4,1.5-1,2.1-1.8c0.6-0.7,1-1.6,1.4-2.5c0.3-1,0.5-2,0.5-3c0-1.1-0.2-2.1-0.6-3.1
			c-0.4-1-0.9-1.8-1.5-2.5s-1.4-1.3-2.2-1.7c-0.9-0.4-1.8-0.6-2.7-0.6h-10.8v15.9H176.5z"/>
		<path class="st19" d="M213,88.2h2.9l14.4,34.7h-3.6l-4.5-10.8h-15.6l-4.4,10.8h-3.7L213,88.2z M221.4,109.4l-7-17.1l-7.1,17.1
			H221.4z"/>
		<path class="st19" d="M234.3,88.2l11.3,18.7L257,88.2h3.7L247.3,110v12.9h-3.4v-13l-13.4-21.7H234.3z"/>
	</g>
	<g class="st18">
		<g>
			<path class="st19" d="M204.2,67.1V40.7l-10.3,19.7h-4.2l-10.3-19.7v26.4h-7.8V27.2h8.3l11.8,22.7l11.9-22.7h8.3v39.9
				C211.9,67.1,204.2,67.1,204.2,67.1z"/>
			<path class="st19" d="M230.2,27.2h6.9l15.2,39.9h-8l-3.7-10h-14l-3.7,10h-8L230.2,27.2z M239.2,51.7L233.7,36L228,51.7H239.2z"/>
			<path class="st19" d="M279.1,37.7c-0.3-0.3-0.7-0.6-1.4-1.1c-0.7-0.5-1.5-0.9-2.5-1.3c-1-0.4-2.1-0.8-3.2-1.1
				c-1.2-0.3-2.3-0.5-3.5-0.5c-2.1,0-3.7,0.4-4.8,1.2c-1.1,0.8-1.6,1.9-1.6,3.3c0,0.8,0.2,1.5,0.6,2.1c0.4,0.5,1,1,1.7,1.4
				c0.8,0.4,1.7,0.8,2.8,1.1c1.1,0.3,2.5,0.7,4,1.1c1.9,0.5,3.7,1.1,5.3,1.7c1.6,0.6,2.9,1.3,4,2.2s2,2,2.6,3.2
				c0.6,1.3,0.9,2.8,0.9,4.6c0,2.1-0.4,4-1.2,5.5c-0.8,1.5-1.9,2.7-3.3,3.7c-1.4,0.9-2.9,1.6-4.7,2.1c-1.8,0.4-3.6,0.6-5.6,0.6
				c-3,0-6-0.4-8.9-1.3s-5.5-2.2-7.9-3.8l3.4-6.7c0.3,0.3,0.9,0.8,1.8,1.3s1.9,1.1,3.1,1.6s2.5,1,4,1.4s3,0.6,4.5,0.6
				c4.3,0,6.4-1.4,6.4-4.1c0-0.9-0.2-1.6-0.7-2.2c-0.5-0.6-1.2-1.1-2.1-1.6s-2-0.9-3.3-1.2c-1.3-0.4-2.7-0.8-4.3-1.2
				c-1.9-0.5-3.6-1.1-5-1.7c-1.4-0.6-2.6-1.4-3.5-2.2s-1.6-1.8-2.1-2.9c-0.5-1.1-0.7-2.4-0.7-4c0-2,0.4-3.8,1.1-5.4
				c0.7-1.6,1.8-2.9,3.1-3.9s2.9-1.8,4.6-2.4c1.8-0.5,3.7-0.8,5.7-0.8c2.8,0,5.4,0.4,7.8,1.3s4.4,1.9,6.2,3.1L279.1,37.7z"/>
			<path class="st19" d="M318.2,34h-12.8v33.1h-7.7V34H285v-6.8h33.2V34z"/>
			<path class="st19" d="M349.5,60.3v6.8h-27.7V27.2H349V34h-19.5v9.6h16.8v6.3h-16.8v10.4C329.5,60.3,349.5,60.3,349.5,60.3z"/>
			<path class="st19" d="M354.2,67.1V27.2h17.7c1.8,0,3.5,0.4,5.1,1.2c1.6,0.8,2.9,1.8,4,3c1.1,1.3,2,2.7,2.6,4.3s1,3.2,1,4.8
				c0,2.6-0.6,4.9-1.9,7.1c-1.3,2.1-3,3.6-5.3,4.6l9.1,15h-8.7l-8.2-13.4H362v13.4L354.2,67.1L354.2,67.1z M361.9,46.9h9.7
				c0.7,0,1.4-0.2,2-0.5s1.2-0.8,1.6-1.4c0.5-0.6,0.8-1.3,1.1-2.1c0.3-0.8,0.4-1.6,0.4-2.5s-0.2-1.8-0.5-2.6s-0.7-1.5-1.2-2.1
				s-1.1-1-1.7-1.3c-0.7-0.3-1.3-0.5-2-0.5h-9.4V46.9z"/>
		</g>
		<g>
			<path class="st20" d="M64.8,42l47-23.8c1.2-0.7,6.4-2.6,6.4,4.7v105H92.4V83.8l-28,14l0,0c-8.6,3.9-11.6-2.8-11.6-7.7V66
				C52.8,51.1,56.4,46.8,64.8,42z"/>
			<path class="st20" d="M52.8,66v5.2l7-25.2C55.1,50,52.8,55.2,52.8,66z"/>
			<path class="st20" d="M59.8,45.9L59.8,45.9L59.8,45.9z"/>
			<path class="st21" d="M64.4,97.8L64.4,97.8l28-14v44.1h25.9V91.8L59.8,45.9l0,0l-7,25.2v19C52.8,95,55.8,101.7,64.4,97.8z"/>
			<path class="st19" d="M56,42.6L8.2,18.4c-1.5-0.5-6.9-2.8-6.9,4.5v105h25.9V83.8l28,14l0,0c8.6,3.9,11.6-2.8,11.6-7.7V63.8
				C66.8,52.7,65.4,47.4,56,42.6z"/>
		</g>
	</g>
</g>
</svg>
