<?xml version="1.0" encoding="utf-8"?>
<!-- Generator: Adobe Illustrator 24.0.1, SVG Export Plug-In . SVG Version: 6.00 Build 0)  -->
<svg version="1.1" id="Layer_1" xmlns="http://www.w3.org/2000/svg" xmlns:xlink="http://www.w3.org/1999/xlink" x="0px" y="0px"
	 viewBox="0 0 440 150" style="enable-background:new 0 0 440 150;" xml:space="preserve">
<style type="text/css">
	.st0{fill:#FF3C64;}
	.st1{fill:#C3A5A5;}
	.st2{fill:#AF9191;}
</style>
<g>
	<g>
		<path class="st0" d="M205.1,122.9V88.2h14.4c1.5,0,2.9,0.3,4.1,1c1.3,0.6,2.3,1.5,3.2,2.5s1.6,2.2,2.1,3.5s0.8,2.6,0.8,4
			s-0.2,2.8-0.7,4.1c-0.5,1.3-1.2,2.5-2.1,3.5c-0.9,1-1.9,1.8-3.2,2.4c-1.2,0.6-2.6,0.9-4.1,0.9h-11.2v12.8H205.1z M208.5,107.1
			h11.1c1,0,1.9-0.2,2.8-0.7c0.8-0.4,1.5-1,2.1-1.8c0.6-0.7,1-1.6,1.4-2.5c0.3-1,0.5-2,0.5-3c0-1.1-0.2-2.1-0.6-3.1
			c-0.4-1-0.9-1.8-1.5-2.5s-1.4-1.3-2.2-1.7c-0.9-0.4-1.8-0.6-2.7-0.6h-10.8v15.9H208.5z"/>
		<path class="st0" d="M245,88.2h2.9l14.4,34.7h-3.6l-4.5-10.8h-15.6l-4.4,10.8h-3.7L245,88.2z M253.4,109.4l-7-17.1l-7.1,17.1
			H253.4z"/>
		<path class="st0" d="M266.3,88.2l11.3,18.7L289,88.2h3.7L279.3,110v12.9h-3.4v-13l-13.4-21.7H266.3z"/>
	</g>
	<g>
		<g>
			<path class="st0" d="M236.2,67.1V40.7l-10.3,19.7h-4.2l-10.3-19.7v26.4h-7.8V27.2h8.3l11.8,22.7l11.9-22.7h8.3v39.9
				C243.9,67.1,236.2,67.1,236.2,67.1z"/>
			<path class="st0" d="M262.2,27.2h6.9l15.2,39.9h-8l-3.7-10h-14l-3.7,10h-8L262.2,27.2z M271.2,51.7L265.7,36L260,51.7H271.2z"/>
			<path class="st0" d="M311.1,37.7c-0.3-0.3-0.7-0.6-1.4-1.1c-0.7-0.5-1.5-0.9-2.5-1.3c-1-0.4-2.1-0.8-3.2-1.1
				c-1.2-0.3-2.3-0.5-3.5-0.5c-2.1,0-3.7,0.4-4.8,1.2c-1.1,0.8-1.6,1.9-1.6,3.3c0,0.8,0.2,1.5,0.6,2.1c0.4,0.5,1,1,1.7,1.4
				c0.8,0.4,1.7,0.8,2.8,1.1c1.1,0.3,2.5,0.7,4,1.1c1.9,0.5,3.7,1.1,5.3,1.7c1.6,0.6,2.9,1.3,4,2.2s2,2,2.6,3.2
				c0.6,1.3,0.9,2.8,0.9,4.6c0,2.1-0.4,4-1.2,5.5c-0.8,1.5-1.9,2.7-3.3,3.7c-1.4,0.9-2.9,1.6-4.7,2.1c-1.8,0.4-3.6,0.6-5.6,0.6
				c-3,0-6-0.4-8.9-1.3s-5.5-2.2-7.9-3.8l3.4-6.7c0.3,0.3,0.9,0.8,1.8,1.3s1.9,1.1,3.1,1.6s2.5,1,4,1.4s3,0.6,4.5,0.6
				c4.3,0,6.4-1.4,6.4-4.1c0-0.9-0.2-1.6-0.7-2.2c-0.5-0.6-1.2-1.1-2.1-1.6s-2-0.9-3.3-1.2c-1.3-0.4-2.7-0.8-4.3-1.2
				c-1.9-0.5-3.6-1.1-5-1.7c-1.4-0.6-2.6-1.4-3.5-2.2s-1.6-1.8-2.1-2.9c-0.5-1.1-0.7-2.4-0.7-4c0-2,0.4-3.8,1.1-5.4
				c0.7-1.6,1.8-2.9,3.1-3.9s2.9-1.8,4.6-2.4c1.8-0.5,3.7-0.8,5.7-0.8c2.8,0,5.4,0.4,7.8,1.3s4.4,1.9,6.2,3.1L311.1,37.7z"/>
			<path class="st0" d="M350.2,34h-12.8v33.1h-7.7V34H317v-6.8h33.2V34z"/>
			<path class="st0" d="M381.5,60.3v6.8h-27.7V27.2H381V34h-19.5v9.6h16.8v6.3h-16.8v10.4C361.5,60.3,381.5,60.3,381.5,60.3z"/>
			<path class="st0" d="M386.2,67.1V27.2h17.7c1.8,0,3.5,0.4,5.1,1.2c1.6,0.8,2.9,1.8,4,3c1.1,1.3,2,2.7,2.6,4.3s1,3.2,1,4.8
				c0,2.6-0.6,4.9-1.9,7.1c-1.3,2.1-3,3.6-5.3,4.6l9.1,15h-8.7l-8.2-13.4H394v13.4L386.2,67.1L386.2,67.1z M393.9,46.9h9.7
				c0.7,0,1.4-0.2,2-0.5s1.2-0.8,1.6-1.4c0.5-0.6,0.8-1.3,1.1-2.1c0.3-0.8,0.4-1.6,0.4-2.5s-0.2-1.8-0.5-2.6s-0.7-1.5-1.2-2.1
				s-1.1-1-1.7-1.3c-0.7-0.3-1.3-0.5-2-0.5h-9.4V46.9z"/>
		</g>
		<g>
			<path class="st1" d="M96.8,42l47-23.8c1.2-0.7,6.4-2.6,6.4,4.7v105h-25.8V83.8l-28,14l0,0c-8.6,3.9-11.6-2.8-11.6-7.7V66
				C84.8,51.1,88.4,46.8,96.8,42z"/>
			<path class="st1" d="M84.8,66v5.2l7-25.2C87.1,50,84.8,55.2,84.8,66z"/>
			<path class="st1" d="M91.8,45.9L91.8,45.9L91.8,45.9z"/>
			<path class="st2" d="M96.4,97.8L96.4,97.8l28-14v44.1h25.9V91.8L91.8,45.9l0,0l-7,25.2v19C84.8,95,87.8,101.7,96.4,97.8z"/>
			<path class="st0" d="M88,42.6L40.2,18.4c-1.5-0.5-6.9-2.8-6.9,4.5v105h25.9V83.8l28,14l0,0c8.6,3.9,11.6-2.8,11.6-7.7V63.8
				C98.8,52.7,97.4,47.4,88,42.6z"/>
		</g>
	</g>
</g>
</svg>
