<?xml version="1.0" encoding="utf-8"?>
<!-- Generator: Adobe Illustrator 24.1.1, SVG Export Plug-In . SVG Version: 6.00 Build 0)  -->
<svg version="1.1" id="Layer_1" xmlns="http://www.w3.org/2000/svg" xmlns:xlink="http://www.w3.org/1999/xlink" x="0px" y="0px"
	 viewBox="0 0 68 90.8" style="enable-background:new 0 0 68 90.8;" xml:space="preserve">
<style type="text/css">
	.st0{fill:#363A3F;}
	.st1{fill:#217FFF;}
</style>
<path id="cblack" class="st0" d="M31,52.9l3.7-6.4h3.2c2.5,0,4.5-1.9,4.5-4.5V22.2c0-2.5-1.9-4.5-4.5-4.5h-7.7
	c-2.5,0-4.5,1.9-4.5,4.5v8.5c-2.4,0.6-4.5,1.9-6.4,3.6V22.2c0.2-5.8,4.9-10.7,10.9-10.7h7.7c2.9,0,5.5,1.1,7.7,3.2
	c1.9,2.2,3.2,4.7,3.2,7.7v19.9c0,5.9-4.9,10.9-10.9,10.9l0,0L31,52.9z"/>
<path id="cblue" class="st1" d="M30.2,79.3c-5.9,0-10.9-4.9-10.9-10.9V45.5c0-5.9,4.9-10.9,10.9-10.9h7.9l-3.4,6.4h-4.5
	c-2.5,0-4.5,1.9-4.5,4.5v23c0,2.5,1.9,4.5,4.5,4.5h7.7c1.2,0,2.3-0.5,3.2-1.3s1.3-1.9,1.3-3.2V57.1c2.4-0.6,4.5-1.9,6.4-3.6v14.9
	c0,5.9-4.9,10.9-10.9,10.9H30.2z"/>
</svg>
