<?xml version="1.0" encoding="utf-8"?>
<!-- Generator: Adobe Illustrator 24.0.1, SVG Export Plug-In . SVG Version: 6.00 Build 0)  -->
<svg version="1.1" id="Layer_1" xmlns="http://www.w3.org/2000/svg" xmlns:xlink="http://www.w3.org/1999/xlink" x="0px" y="0px"
	 viewBox="0 0 440 150" style="enable-background:new 0 0 440 150;" xml:space="preserve">
<style type="text/css">
	.st0{fill:url(#SVGID_1_);}
	.st1{fill:url(#SVGID_2_);}
	.st2{fill:url(#SVGID_3_);}
	.st3{fill:#8200D2;}
	.st4{fill:#7800DC;}
	.st5{fill:url(#SVGID_4_);}
	.st6{fill:url(#SVGID_5_);}
	.st7{fill:url(#SVGID_6_);}
	.st8{fill:url(#SVGID_7_);}
	.st9{fill:url(#SVGID_8_);}
	.st10{fill:url(#SVGID_9_);}
	.st11{fill:url(#SVGID_10_);}
	.st12{fill:url(#SVGID_11_);}
	.st13{fill:url(#SVGID_12_);}
	.st14{fill:url(#SVGID_13_);}
	.st15{fill:url(#SVGID_14_);}
	.st16{fill:url(#SVGID_15_);}
	.st17{fill:url(#SVGID_16_);}
	.st18{display:none;}
	.st19{display:inline;}
	.st20{fill:url(#SVGID_17_);}
	.st21{fill:url(#SVGID_18_);}
	.st22{fill:url(#SVGID_19_);}
	.st23{fill:url(#SVGID_20_);}
	.st24{fill:url(#SVGID_21_);}
	.st25{fill:url(#SVGID_22_);}
	.st26{fill:url(#SVGID_23_);}
	.st27{fill:url(#SVGID_24_);}
	.st28{fill:url(#SVGID_25_);}
	.st29{fill:url(#SVGID_26_);}
	.st30{fill:url(#SVGID_27_);}
	.st31{fill:url(#SVGID_28_);}
	.st32{fill:url(#SVGID_29_);}
	.st33{fill:url(#SVGID_30_);}
	.st34{fill:url(#SVGID_31_);}
	.st35{fill:url(#SVGID_32_);}
	.st36{fill:url(#SVGID_33_);}
	.st37{fill:#FF3C64;}
	.st38{fill:#C3A5A5;}
	.st39{fill:#AF9191;}
</style>
<g>
	<g>
		
			<linearGradient id="SVGID_1_" gradientUnits="userSpaceOnUse" x1="113.5702" y1="24.0323" x2="161.7968" y2="47.554" gradientTransform="matrix(1 0 0 -1 0 152)">
			<stop  offset="0" style="stop-color:#FFBE00"/>
			<stop  offset="1" style="stop-color:#FF9100"/>
		</linearGradient>
		<polygon class="st0" points="154.1,89.8 98.5,126.6 154.1,126.6 		"/>
		
			<linearGradient id="SVGID_2_" gradientUnits="userSpaceOnUse" x1="80.3688" y1="28.0885" x2="16.414" y2="51.215" gradientTransform="matrix(1 0 0 -1 0 152)">
			<stop  offset="0" style="stop-color:#FFBE00"/>
			<stop  offset="1" style="stop-color:#FF9100"/>
		</linearGradient>
		<polygon class="st1" points="40.1,92.1 90.4,126.6 40.1,126.6 		"/>
		
			<linearGradient id="SVGID_3_" gradientUnits="userSpaceOnUse" x1="12.2863" y1="141.8226" x2="66.8498" y2="83.7947" gradientTransform="matrix(1 0 0 -1 0 152)">
			<stop  offset="5.586592e-03" style="stop-color:#C346FF"/>
			<stop  offset="0.2367" style="stop-color:#BE3FFD"/>
			<stop  offset="0.5721" style="stop-color:#AF2CF8"/>
			<stop  offset="0.9694" style="stop-color:#980CF1"/>
			<stop  offset="0.9944" style="stop-color:#960AF0"/>
		</linearGradient>
		<path class="st2" d="M95,59.5L95,59.5L95,59.5L40.1,24v10.9v26.3v17.2L95,113.8V59.5L95,59.5z"/>
		<path class="st3" d="M154.1,75.6V22.1L95,59.4v54.4L154.1,75.6z"/>
		<polygon class="st4" points="64.3,51.4 40.1,35.2 40.1,62.4 64.3,78.6 		"/>
		
			<linearGradient id="SVGID_4_" gradientUnits="userSpaceOnUse" x1="32.6299" y1="107.5275" x2="76.365" y2="64.8481" gradientTransform="matrix(1 0 0 -1 0 152)">
			<stop  offset="0" style="stop-color:#FFBE00"/>
			<stop  offset="1" style="stop-color:#FF9100"/>
		</linearGradient>
		<polygon class="st5" points="59.3,53.9 59.3,78 30.2,58.7 30.2,34.6 		"/>
	</g>
	<g>
		
			<linearGradient id="SVGID_5_" gradientUnits="userSpaceOnUse" x1="201.7342" y1="109.6567" x2="349.4828" y2="78.2102" gradientTransform="matrix(1 0 0 -1 0 152)">
			<stop  offset="5.586592e-03" style="stop-color:#A032FF"/>
			<stop  offset="0.2669" style="stop-color:#9A2BFB"/>
			<stop  offset="0.6452" style="stop-color:#8B18EF"/>
			<stop  offset="0.9944" style="stop-color:#7800E1"/>
		</linearGradient>
		<path class="st6" d="M231.5,66V39.6l-10.3,19.7H217l-10.3-19.7V66H199V26.1h8.3l11.8,22.7L231,26.1h8.3V66H231.5z"/>
		
			<linearGradient id="SVGID_6_" gradientUnits="userSpaceOnUse" x1="203.2185" y1="116.6305" x2="350.9671" y2="85.184" gradientTransform="matrix(1 0 0 -1 0 152)">
			<stop  offset="5.586592e-03" style="stop-color:#A032FF"/>
			<stop  offset="0.2669" style="stop-color:#9A2BFB"/>
			<stop  offset="0.6452" style="stop-color:#8B18EF"/>
			<stop  offset="0.9944" style="stop-color:#7800E1"/>
		</linearGradient>
		<path class="st7" d="M257.6,26.1h6.9L279.6,66h-8l-3.7-9.9H254l-3.7,9.9h-8L257.6,26.1z M266.5,50.6L261,34.9l-5.7,15.7
			C255.3,50.6,266.5,50.6,266.5,50.6z"/>
		
			<linearGradient id="SVGID_7_" gradientUnits="userSpaceOnUse" x1="205.0099" y1="125.0474" x2="352.7585" y2="93.6009" gradientTransform="matrix(1 0 0 -1 0 152)">
			<stop  offset="5.586592e-03" style="stop-color:#A032FF"/>
			<stop  offset="0.2669" style="stop-color:#9A2BFB"/>
			<stop  offset="0.6452" style="stop-color:#8B18EF"/>
			<stop  offset="0.9944" style="stop-color:#7800E1"/>
		</linearGradient>
		<path class="st8" d="M306.3,36.6c-0.3-0.3-0.7-0.6-1.4-1.1c-0.7-0.4-1.5-0.9-2.5-1.3c-1-0.4-2.1-0.8-3.2-1.1
			c-1.2-0.3-2.3-0.4-3.5-0.4c-2.1,0-3.7,0.4-4.8,1.2c-1,0.8-1.6,1.9-1.6,3.3c0,0.8,0.2,1.5,0.6,2.1c0.4,0.5,1,1,1.7,1.4
			s1.7,0.8,2.8,1.1c1.1,0.3,2.5,0.7,4,1.1c1.9,0.5,3.7,1.1,5.3,1.7c1.6,0.6,2.9,1.3,4,2.2s2,2,2.6,3.2c0.6,1.3,0.9,2.8,0.9,4.6
			c0,2.1-0.4,4-1.2,5.5c-0.8,1.5-1.9,2.7-3.3,3.7c-1.4,0.9-2.9,1.6-4.7,2.1c-1.8,0.4-3.6,0.6-5.6,0.6c-3,0-6-0.4-8.9-1.3
			s-5.5-2.2-7.9-3.8l3.4-6.7c0.3,0.3,0.9,0.8,1.8,1.3s1.9,1.1,3.1,1.6c1.2,0.5,2.5,1,4,1.4s3,0.6,4.5,0.6c4.3,0,6.4-1.4,6.4-4.1
			c0-0.9-0.2-1.6-0.7-2.2c-0.5-0.6-1.2-1.1-2.1-1.6c-0.9-0.4-2-0.9-3.3-1.2c-1.3-0.4-2.7-0.8-4.3-1.2c-1.9-0.5-3.6-1.1-5-1.7
			c-1.4-0.6-2.6-1.3-3.5-2.2c-0.9-0.8-1.6-1.8-2.1-2.9c-0.5-1.1-0.7-2.4-0.7-4c0-2,0.4-3.8,1.1-5.4c0.7-1.6,1.8-2.9,3.1-3.9
			c1.3-1,2.9-1.8,4.6-2.4c1.8-0.5,3.7-0.8,5.7-0.8c2.8,0,5.4,0.4,7.8,1.3s4.4,1.9,6.2,3.1L306.3,36.6z"/>
		
			<linearGradient id="SVGID_8_" gradientUnits="userSpaceOnUse" x1="206.7634" y1="133.2862" x2="354.512" y2="101.8397" gradientTransform="matrix(1 0 0 -1 0 152)">
			<stop  offset="5.586592e-03" style="stop-color:#A032FF"/>
			<stop  offset="0.2669" style="stop-color:#9A2BFB"/>
			<stop  offset="0.6452" style="stop-color:#8B18EF"/>
			<stop  offset="0.9944" style="stop-color:#7800E1"/>
		</linearGradient>
		<path class="st9" d="M345.5,32.9h-12.8V66H325V32.9h-12.8v-6.8h33.2L345.5,32.9L345.5,32.9z"/>
		
			<linearGradient id="SVGID_9_" gradientUnits="userSpaceOnUse" x1="207.9509" y1="138.8652" x2="355.6995" y2="107.4187" gradientTransform="matrix(1 0 0 -1 0 152)">
			<stop  offset="5.586592e-03" style="stop-color:#A032FF"/>
			<stop  offset="0.2669" style="stop-color:#9A2BFB"/>
			<stop  offset="0.6452" style="stop-color:#8B18EF"/>
			<stop  offset="0.9944" style="stop-color:#7800E1"/>
		</linearGradient>
		<path class="st10" d="M376.7,59.2V66H349V26.1h27.2v6.8h-19.4v9.6h16.8v6.3h-16.8v10.4C356.8,59.2,376.7,59.2,376.7,59.2z"/>
		
			<linearGradient id="SVGID_10_" gradientUnits="userSpaceOnUse" x1="209.1736" y1="144.6099" x2="356.9222" y2="113.1634" gradientTransform="matrix(1 0 0 -1 0 152)">
			<stop  offset="5.586592e-03" style="stop-color:#A032FF"/>
			<stop  offset="0.2669" style="stop-color:#9A2BFB"/>
			<stop  offset="0.6452" style="stop-color:#8B18EF"/>
			<stop  offset="0.9944" style="stop-color:#7800E1"/>
		</linearGradient>
		<path class="st11" d="M381.4,66V26.1H399c1.8,0,3.5,0.4,5.1,1.2c1.6,0.8,2.9,1.8,4,3c1.1,1.3,2,2.7,2.6,4.3c0.6,1.6,1,3.2,1,4.8
			c0,2.6-0.6,4.9-1.9,7.1c-1.3,2.1-3,3.6-5.3,4.6l9.1,15h-8.7l-8.1-13.4h-7.6V66H381.4z M389.1,45.8h9.7c0.7,0,1.4-0.2,2-0.5
			s1.2-0.8,1.6-1.4s0.8-1.3,1.1-2.1c0.3-0.8,0.4-1.6,0.4-2.5s-0.2-1.8-0.4-2.6c-0.3-0.8-0.7-1.5-1.2-2.1s-1.1-1-1.7-1.3
			c-0.7-0.3-1.3-0.5-2-0.5h-9.4v13H389.1z"/>
	</g>
	<g>
		
			<linearGradient id="SVGID_11_" gradientUnits="userSpaceOnUse" x1="17.557" y1="93.1277" x2="148.7936" y2="65.1956" gradientTransform="matrix(1 0 0 -1 0 152)">
			<stop  offset="5.586592e-03" style="stop-color:#A032FF"/>
			<stop  offset="0.2669" style="stop-color:#9A2BFB"/>
			<stop  offset="0.6452" style="stop-color:#8B18EF"/>
			<stop  offset="0.9944" style="stop-color:#7800E1"/>
		</linearGradient>
		<polygon class="st12" points="245.8,86.9 233.1,118 226.4,102.1 232.5,87.1 229.2,87.1 224.2,99.6 219.3,87.1 216,87.1 
			222.1,102.1 215.5,118 202.7,86.9 199,86.9 213.8,122 216.8,122 224.3,104.6 231.6,122 234.7,122 249.6,86.9 		"/>
		
			<linearGradient id="SVGID_12_" gradientUnits="userSpaceOnUse" x1="18.5798" y1="97.933" x2="149.8164" y2="70.0009" gradientTransform="matrix(1 0 0 -1 0 152)">
			<stop  offset="5.586592e-03" style="stop-color:#A032FF"/>
			<stop  offset="0.2669" style="stop-color:#9A2BFB"/>
			<stop  offset="0.6452" style="stop-color:#8B18EF"/>
			<stop  offset="0.9944" style="stop-color:#7800E1"/>
		</linearGradient>
		<path class="st13" d="M261.2,86.9L246.5,122h3.7l4.5-11h15.8l4.5,11h3.7l-14.6-35.1H261.2z M255.5,108.3l7.2-17.4l7.1,17.4H255.5z
			"/>
		
			<linearGradient id="SVGID_13_" gradientUnits="userSpaceOnUse" x1="19.8344" y1="103.8276" x2="151.071" y2="75.8955" gradientTransform="matrix(1 0 0 -1 0 152)">
			<stop  offset="5.586592e-03" style="stop-color:#A032FF"/>
			<stop  offset="0.2669" style="stop-color:#9A2BFB"/>
			<stop  offset="0.6452" style="stop-color:#8B18EF"/>
			<stop  offset="0.9944" style="stop-color:#7800E1"/>
		</linearGradient>
		<polygon class="st14" points="286,86.9 282.5,86.9 282.5,122 306.2,122 306.2,118.9 286,118.9 		"/>
		
			<linearGradient id="SVGID_14_" gradientUnits="userSpaceOnUse" x1="21.0305" y1="109.4474" x2="152.267" y2="81.5153" gradientTransform="matrix(1 0 0 -1 0 152)">
			<stop  offset="5.586592e-03" style="stop-color:#A032FF"/>
			<stop  offset="0.2669" style="stop-color:#9A2BFB"/>
			<stop  offset="0.6452" style="stop-color:#8B18EF"/>
			<stop  offset="0.9944" style="stop-color:#7800E1"/>
		</linearGradient>
		<polygon class="st15" points="313.6,86.9 310.1,86.9 310.1,122 333.8,122 333.8,118.9 313.6,118.9 		"/>
		
			<linearGradient id="SVGID_15_" gradientUnits="userSpaceOnUse" x1="22.6513" y1="117.0626" x2="153.8878" y2="89.1305" gradientTransform="matrix(1 0 0 -1 0 152)">
			<stop  offset="5.586592e-03" style="stop-color:#A032FF"/>
			<stop  offset="0.2669" style="stop-color:#9A2BFB"/>
			<stop  offset="0.6452" style="stop-color:#8B18EF"/>
			<stop  offset="0.9944" style="stop-color:#7800E1"/>
		</linearGradient>
		<polygon class="st16" points="341.2,105.5 358.3,105.5 358.3,102.6 341.2,102.6 341.2,90 360.8,90 360.8,86.9 337.7,86.9 
			337.7,122 361.3,122 361.3,118.9 341.2,118.9 		"/>
		
			<linearGradient id="SVGID_16_" gradientUnits="userSpaceOnUse" x1="24.1355" y1="124.0363" x2="155.3721" y2="96.1042" gradientTransform="matrix(1 0 0 -1 0 152)">
			<stop  offset="5.586592e-03" style="stop-color:#A032FF"/>
			<stop  offset="0.2669" style="stop-color:#9A2BFB"/>
			<stop  offset="0.6452" style="stop-color:#8B18EF"/>
			<stop  offset="0.9944" style="stop-color:#7800E1"/>
		</linearGradient>
		<polygon class="st17" points="363,86.9 363,90 375.5,90 375.5,122 379,122 379,90 391.5,90 391.5,86.9 		"/>
	</g>
</g>
<g class="st18">
	<g class="st19">
		
			<linearGradient id="SVGID_17_" gradientUnits="userSpaceOnUse" x1="-46.5459" y1="118.7555" x2="28.2767" y2="27.6649" gradientTransform="matrix(1 0 0 -1 0 152)">
			<stop  offset="0" style="stop-color:#14AAFF"/>
			<stop  offset="1" style="stop-color:#0A3CF0"/>
		</linearGradient>
		<polygon class="st20" points="0.4,68.7 0.4,130.1 31.7,130.1 31.7,88.8 31.7,88.8 		"/>
		
			<linearGradient id="SVGID_18_" gradientUnits="userSpaceOnUse" x1="-5.2398" y1="153.2198" x2="69.5537" y2="62.1647" gradientTransform="matrix(1 0 0 -1 0 152)">
			<stop  offset="0" style="stop-color:#14AAFF"/>
			<stop  offset="1" style="stop-color:#0A3CF0"/>
		</linearGradient>
		<polygon class="st21" points="0.3,19.8 0.3,58 116.9,133.2 116.9,95 		"/>
		
			<linearGradient id="SVGID_19_" gradientUnits="userSpaceOnUse" x1="35.9977" y1="184.7174" x2="109.3995" y2="95.3567" gradientTransform="matrix(1 0 0 -1 0 152)">
			<stop  offset="0" style="stop-color:#14AAFF"/>
			<stop  offset="1" style="stop-color:#0A3CF0"/>
		</linearGradient>
		<polygon class="st22" points="116.9,19.7 69.3,53.9 116.9,84.3 		"/>
	</g>
	<g class="st19">
		
			<linearGradient id="SVGID_20_" gradientUnits="userSpaceOnUse" x1="124.6455" y1="142.1753" x2="318.339" y2="33.0026" gradientTransform="matrix(1 0 0 -1 0 152)">
			<stop  offset="0" style="stop-color:#14AAFF"/>
			<stop  offset="1" style="stop-color:#0A3CF0"/>
		</linearGradient>
		<polygon class="st23" points="208.8,65.9 208.8,25.9 200.5,25.9 188.6,48.7 176.8,25.9 168.5,25.9 168.5,65.9 176.2,65.9 
			176.2,39.4 186.5,59.1 190.7,59.1 201,39.4 201,65.9 		"/>
		
			<linearGradient id="SVGID_21_" gradientUnits="userSpaceOnUse" x1="132.9123" y1="156.8422" x2="326.6058" y2="47.6695" gradientTransform="matrix(1 0 0 -1 0 152)">
			<stop  offset="0" style="stop-color:#14AAFF"/>
			<stop  offset="1" style="stop-color:#0A3CF0"/>
		</linearGradient>
		<path class="st24" d="M233.9,25.9H227l-15.2,39.9h8l3.7-10h13.9l3.7,10h8L233.9,25.9z M224.8,50.5l5.7-15.7l5.5,15.7H224.8z"/>
		
			<linearGradient id="SVGID_22_" gradientUnits="userSpaceOnUse" x1="142.9233" y1="174.6036" x2="336.6168" y2="65.431" gradientTransform="matrix(1 0 0 -1 0 152)">
			<stop  offset="0" style="stop-color:#14AAFF"/>
			<stop  offset="1" style="stop-color:#0A3CF0"/>
		</linearGradient>
		<path class="st25" d="M279.5,59.9c0.8-1.5,1.2-3.3,1.2-5.5c0-1.8-0.3-3.4-0.9-4.6c-0.6-1.3-1.5-2.3-2.6-3.2s-2.5-1.6-4-2.2
			c-1.6-0.6-3.4-1.2-5.3-1.7c-1.5-0.4-2.8-0.7-4-1.1c-1.1-0.3-2.1-0.7-2.8-1.1c-0.8-0.4-1.3-0.9-1.7-1.4c-0.4-0.5-0.6-1.2-0.6-2.1
			c0-1.4,0.5-2.5,1.6-3.3s2.6-1.2,4.8-1.2c1.2,0,2.4,0.2,3.5,0.5c1.2,0.3,2.2,0.7,3.2,1.1c1,0.4,1.8,0.9,2.5,1.3
			c0.7,0.4,1.2,0.8,1.4,1.1l3.4-6.3c-1.8-1.2-3.8-2.2-6.2-3.1c-2.4-0.9-5-1.3-7.8-1.3c-2,0-3.9,0.3-5.7,0.8
			c-1.8,0.5-3.3,1.3-4.6,2.4c-1.3,1.1-2.4,2.4-3.1,3.9c-0.8,1.6-1.1,3.4-1.1,5.4c0,1.5,0.2,2.9,0.7,4s1.2,2.1,2.1,2.9
			c0.9,0.8,2.1,1.6,3.5,2.2c1.4,0.6,3.1,1.2,5,1.7c1.6,0.4,3,0.9,4.3,1.2c1.3,0.4,2.4,0.8,3.3,1.2s1.6,1,2.1,1.6s0.7,1.3,0.7,2.2
			c0,2.7-2.1,4.1-6.4,4.1c-1.5,0-3-0.2-4.5-0.6c-1.5-0.4-2.8-0.8-4-1.4c-1.2-0.5-2.2-1.1-3.1-1.6c-0.9-0.5-1.5-1-1.8-1.3l-3.4,6.7
			c2.3,1.7,4.9,2.9,7.9,3.8c2.9,0.9,5.9,1.3,8.9,1.3c2,0,3.8-0.2,5.6-0.6c1.8-0.4,3.4-1.1,4.7-2.1C277.6,62.7,278.7,61.5,279.5,59.9
			z"/>
		
			<linearGradient id="SVGID_23_" gradientUnits="userSpaceOnUse" x1="152.6486" y1="191.8581" x2="346.342" y2="82.6854" gradientTransform="matrix(1 0 0 -1 0 152)">
			<stop  offset="0" style="stop-color:#14AAFF"/>
			<stop  offset="1" style="stop-color:#0A3CF0"/>
		</linearGradient>
		<polygon class="st26" points="281.8,32.7 294.6,32.7 294.6,65.9 302.3,65.9 302.3,32.7 315,32.7 315,25.9 281.8,25.9 		"/>
		
			<linearGradient id="SVGID_24_" gradientUnits="userSpaceOnUse" x1="159.2545" y1="203.5784" x2="352.948" y2="94.4057" gradientTransform="matrix(1 0 0 -1 0 152)">
			<stop  offset="0" style="stop-color:#14AAFF"/>
			<stop  offset="1" style="stop-color:#0A3CF0"/>
		</linearGradient>
		<polygon class="st27" points="326.3,48.7 343.2,48.7 343.2,42.4 326.3,42.4 326.3,32.7 345.8,32.7 345.8,25.9 318.6,25.9 
			318.6,65.9 346.3,65.9 346.3,59.1 326.3,59.1 		"/>
		
			<linearGradient id="SVGID_25_" gradientUnits="userSpaceOnUse" x1="166.2976" y1="216.0741" x2="359.991" y2="106.9014" gradientTransform="matrix(1 0 0 -1 0 152)">
			<stop  offset="0" style="stop-color:#14AAFF"/>
			<stop  offset="1" style="stop-color:#0A3CF0"/>
		</linearGradient>
		<path class="st28" d="M379.4,46.3c1.3-2.1,1.9-4.5,1.9-7.1c0-1.6-0.3-3.2-1-4.8c-0.6-1.6-1.5-3-2.6-4.3s-2.5-2.3-4-3
			c-1.6-0.8-3.3-1.2-5.1-1.2H351v39.9h7.8V52.5h7.6l8.2,13.4h8.7l-9.1-15C376.4,49.9,378.1,48.4,379.4,46.3z M373.1,41.7
			c-0.3,0.8-0.6,1.5-1.1,2.1s-1,1-1.6,1.4c-0.6,0.3-1.3,0.5-2,0.5h-9.7v-13h9.4c0.7,0,1.3,0.2,2,0.5s1.2,0.8,1.7,1.3
			c0.5,0.6,0.9,1.3,1.2,2.1c0.3,0.8,0.5,1.7,0.5,2.6C373.5,40.1,373.4,41,373.1,41.7z"/>
	</g>
	<g class="st19">
		
			<linearGradient id="SVGID_26_" gradientUnits="userSpaceOnUse" x1="101.2043" y1="94.6203" x2="292.0016" y2="-12.92" gradientTransform="matrix(1 0 0 -1 0 152)">
			<stop  offset="0" style="stop-color:#14AAFF"/>
			<stop  offset="1" style="stop-color:#0A3CF0"/>
		</linearGradient>
		<polygon class="st29" points="195.5,115.8 172.6,87 170,87 170,121.6 173.4,121.6 173.4,93.3 195.9,121.6 198.9,121.6 198.9,87 
			195.5,87 		"/>
		
			<linearGradient id="SVGID_27_" gradientUnits="userSpaceOnUse" x1="109.8644" y1="109.985" x2="300.6617" y2="2.4447" gradientTransform="matrix(1 0 0 -1 0 152)">
			<stop  offset="0" style="stop-color:#14AAFF"/>
			<stop  offset="1" style="stop-color:#0A3CF0"/>
		</linearGradient>
		<path class="st30" d="M232.1,92.3c-1.4-1.7-3.1-3-5.1-4s-4.2-1.5-6.6-1.5c-2.3,0-4.5,0.5-6.4,1.4c-2,1-3.7,2.3-5.2,3.9
			s-2.6,3.5-3.4,5.6c-0.8,2.1-1.2,4.3-1.2,6.6c0,2.2,0.4,4.4,1.2,6.5s1.9,4,3.3,5.6c1.4,1.6,3.1,3,5.1,3.9c2,1,4.2,1.5,6.6,1.5
			c2.3,0,4.5-0.5,6.4-1.4c2-1,3.7-2.2,5.1-3.9c1.4-1.6,2.6-3.5,3.4-5.6c0.8-2.1,1.2-4.3,1.2-6.6c0-2.2-0.4-4.3-1.2-6.4
			C234.6,95.8,233.5,93.9,232.1,92.3z M232.2,109.5c-0.6,1.7-1.5,3.3-2.6,4.6c-1.1,1.4-2.5,2.5-4,3.3c-1.6,0.8-3.4,1.3-5.3,1.3
			c-1.9,0-3.7-0.4-5.2-1.2c-1.6-0.8-2.9-1.9-4-3.2c-1.1-1.3-2-2.9-2.6-4.6s-0.9-3.6-0.9-5.4s0.3-3.5,0.9-5.3
			c0.6-1.7,1.5-3.3,2.6-4.6c1.1-1.4,2.5-2.5,4-3.3c1.6-0.8,3.4-1.2,5.3-1.2c1.9,0,3.6,0.4,5.2,1.2c1.6,0.8,2.9,1.9,4,3.2
			c1.1,1.3,2,2.9,2.7,4.6c0.6,1.7,1,3.6,1,5.4C233.2,106.1,232.8,107.8,232.2,109.5z"/>
		
			<linearGradient id="SVGID_28_" gradientUnits="userSpaceOnUse" x1="117.0651" y1="122.7603" x2="307.8623" y2="15.2201" gradientTransform="matrix(1 0 0 -1 0 152)">
			<stop  offset="0" style="stop-color:#14AAFF"/>
			<stop  offset="1" style="stop-color:#0A3CF0"/>
		</linearGradient>
		<path class="st31" d="M265.9,92c-1.4-1.6-3.1-2.8-5.2-3.7c-2.1-0.9-4.5-1.4-7.2-1.4h-11.8v34.6h11.8c2.5,0,4.8-0.4,6.9-1.2
			c2-0.8,3.8-2,5.2-3.5c1.4-1.5,2.6-3.3,3.3-5.5c0.8-2.1,1.2-4.5,1.2-7.1c0-2.4-0.3-4.6-1-6.7C268.4,95.4,267.3,93.6,265.9,92z
			 M265.8,109.9c-0.6,1.7-1.4,3.3-2.5,4.5c-1.1,1.3-2.5,2.3-4.1,3s-3.5,1.1-5.7,1.1h-8.3V90h8.3c2.1,0,4,0.3,5.6,1
			c1.6,0.7,3,1.7,4.1,3s2,2.8,2.6,4.5s0.9,3.6,0.9,5.7C266.7,106.3,266.4,108.2,265.8,109.9z"/>
		
			<linearGradient id="SVGID_29_" gradientUnits="userSpaceOnUse" x1="125.8802" y1="138.4002" x2="316.6776" y2="30.8599" gradientTransform="matrix(1 0 0 -1 0 152)">
			<stop  offset="0" style="stop-color:#14AAFF"/>
			<stop  offset="1" style="stop-color:#0A3CF0"/>
		</linearGradient>
		<polygon class="st32" points="278.8,105.3 295.8,105.3 295.8,102.5 278.8,102.5 278.8,90 298.2,90 298.2,87 275.4,87 275.4,121.6 
			298.7,121.6 298.7,118.6 278.8,118.6 		"/>
		
			<linearGradient id="SVGID_30_" gradientUnits="userSpaceOnUse" x1="119.5449" y1="156.2882" x2="310.3422" y2="48.7479" gradientTransform="matrix(1 0 0 -1 0 152)">
			<stop  offset="0" style="stop-color:#14AAFF"/>
			<stop  offset="1" style="stop-color:#0A3CF0"/>
		</linearGradient>
		<path class="st33" d="M325.3,90.4c-0.9-1-2-1.9-3.2-2.5c-1.3-0.6-2.6-1-4.1-1h-14.3v34.6h3.4v-12.8h11.2c1.5,0,2.9-0.3,4.1-0.9
			s2.3-1.4,3.1-2.4c0.9-1,1.6-2.2,2-3.5c0.5-1.3,0.7-2.7,0.7-4.1c0-1.3-0.3-2.6-0.8-4C326.9,92.6,326.2,91.4,325.3,90.4z
			 M324.3,100.8c-0.3,1-0.8,1.8-1.4,2.5s-1.3,1.3-2.1,1.8c-0.8,0.4-1.7,0.7-2.8,0.7h-11V90h10.8c0.9,0,1.8,0.2,2.7,0.6
			c0.9,0.4,1.6,1,2.2,1.7s1.1,1.6,1.5,2.5s0.6,2,0.6,3C324.8,98.9,324.6,99.9,324.3,100.8z"/>
		
			<linearGradient id="SVGID_31_" gradientUnits="userSpaceOnUse" x1="127.8551" y1="171.032" x2="318.6523" y2="63.4918" gradientTransform="matrix(1 0 0 -1 0 152)">
			<stop  offset="0" style="stop-color:#14AAFF"/>
			<stop  offset="1" style="stop-color:#0A3CF0"/>
		</linearGradient>
		<path class="st34" d="M358.4,92.3c-1.4-1.7-3.1-3-5.1-4s-4.2-1.5-6.6-1.5c-2.3,0-4.5,0.5-6.4,1.4c-2,1-3.7,2.3-5.2,3.9
			s-2.6,3.5-3.4,5.6s-1.2,4.3-1.2,6.6c0,2.2,0.4,4.4,1.2,6.5c0.8,2.1,1.9,4,3.3,5.6s3.1,3,5.1,3.9c2,1,4.2,1.5,6.6,1.5
			c2.3,0,4.5-0.5,6.4-1.4c2-1,3.7-2.2,5.1-3.9c1.4-1.6,2.6-3.5,3.4-5.6s1.2-4.3,1.2-6.6c0-2.2-0.4-4.3-1.2-6.4
			C360.9,95.8,359.8,93.9,358.4,92.3z M358.5,109.5c-0.6,1.7-1.5,3.3-2.6,4.6c-1.1,1.4-2.5,2.5-4,3.3c-1.6,0.8-3.4,1.3-5.3,1.3
			s-3.7-0.4-5.2-1.2s-2.9-1.9-4-3.2c-1.1-1.3-2-2.9-2.6-4.6s-0.9-3.6-0.9-5.4s0.3-3.5,0.9-5.3c0.6-1.7,1.5-3.3,2.6-4.6
			c1.1-1.4,2.5-2.5,4-3.3c1.6-0.8,3.4-1.2,5.3-1.2s3.6,0.4,5.2,1.2c1.6,0.8,2.9,1.9,4,3.2c1.1,1.3,2,2.9,2.7,4.6
			c0.6,1.7,1,3.6,1,5.4C359.4,106.1,359.1,107.8,358.5,109.5z"/>
		
			<linearGradient id="SVGID_32_" gradientUnits="userSpaceOnUse" x1="136.3898" y1="186.1743" x2="327.1871" y2="78.634" gradientTransform="matrix(1 0 0 -1 0 152)">
			<stop  offset="0" style="stop-color:#14AAFF"/>
			<stop  offset="1" style="stop-color:#0A3CF0"/>
		</linearGradient>
		<path class="st35" d="M393.8,92.3c-1.4-1.7-3.1-3-5.1-4s-4.2-1.5-6.6-1.5c-2.3,0-4.5,0.5-6.4,1.4c-2,1-3.7,2.3-5.2,3.9
			s-2.6,3.5-3.4,5.6s-1.2,4.3-1.2,6.6c0,2.2,0.4,4.4,1.2,6.5c0.8,2.1,1.9,4,3.3,5.6s3.1,3,5.1,3.9c2,1,4.2,1.5,6.6,1.5
			c2.3,0,4.5-0.5,6.4-1.4c2-1,3.7-2.2,5.1-3.9c1.4-1.6,2.6-3.5,3.4-5.6s1.2-4.3,1.2-6.6c0-2.2-0.4-4.3-1.2-6.4
			C396.3,95.8,395.2,93.9,393.8,92.3z M393.9,109.5c-0.6,1.7-1.5,3.3-2.6,4.6c-1.1,1.4-2.5,2.5-4,3.3c-1.6,0.8-3.4,1.3-5.3,1.3
			s-3.7-0.4-5.2-1.2c-1.6-0.8-2.9-1.9-4-3.2c-1.1-1.3-2-2.9-2.6-4.6s-0.9-3.6-0.9-5.4s0.3-3.5,0.9-5.3c0.6-1.7,1.5-3.3,2.6-4.6
			c1.1-1.4,2.5-2.5,4-3.3c1.6-0.8,3.4-1.2,5.3-1.2s3.6,0.4,5.2,1.2c1.6,0.8,2.9,1.9,4,3.2c1.1,1.3,2,2.9,2.7,4.6
			c0.6,1.7,1,3.6,1,5.4C394.8,106.1,394.5,107.8,393.9,109.5z"/>
		
			<linearGradient id="SVGID_33_" gradientUnits="userSpaceOnUse" x1="141.9663" y1="196.0681" x2="332.7635" y2="88.5278" gradientTransform="matrix(1 0 0 -1 0 152)">
			<stop  offset="0" style="stop-color:#14AAFF"/>
			<stop  offset="1" style="stop-color:#0A3CF0"/>
		</linearGradient>
		<polygon class="st36" points="406.9,118.6 406.9,87 403.5,87 403.5,121.6 426.9,121.6 426.9,118.6 		"/>
	</g>
</g>
<g class="st18">
	<g class="st19">
		<path class="st37" d="M173.1,122.9V88.2h14.4c1.5,0,2.9,0.3,4.1,1c1.3,0.6,2.3,1.5,3.2,2.5s1.6,2.2,2.1,3.5s0.8,2.6,0.8,4
			s-0.2,2.8-0.7,4.1c-0.5,1.3-1.2,2.5-2.1,3.5c-0.9,1-1.9,1.8-3.2,2.4c-1.2,0.6-2.6,0.9-4.1,0.9h-11.2v12.8H173.1z M176.5,107.1
			h11.1c1,0,1.9-0.2,2.8-0.7c0.8-0.4,1.5-1,2.1-1.8c0.6-0.7,1-1.6,1.4-2.5c0.3-1,0.5-2,0.5-3c0-1.1-0.2-2.1-0.6-3.1
			c-0.4-1-0.9-1.8-1.5-2.5s-1.4-1.3-2.2-1.7c-0.9-0.4-1.8-0.6-2.7-0.6h-10.8v15.9H176.5z"/>
		<path class="st37" d="M213,88.2h2.9l14.4,34.7h-3.6l-4.5-10.8h-15.6l-4.4,10.8h-3.7L213,88.2z M221.4,109.4l-7-17.1l-7.1,17.1
			H221.4z"/>
		<path class="st37" d="M234.3,88.2l11.3,18.7L257,88.2h3.7L247.3,110v12.9h-3.4v-13l-13.4-21.7H234.3z"/>
	</g>
	<g class="st19">
		<g>
			<path class="st37" d="M204.2,67.1V40.7l-10.3,19.7h-4.2l-10.3-19.7v26.4h-7.8V27.2h8.3l11.8,22.7l11.9-22.7h8.3v39.9
				C211.9,67.1,204.2,67.1,204.2,67.1z"/>
			<path class="st37" d="M230.2,27.2h6.9l15.2,39.9h-8l-3.7-10h-14l-3.7,10h-8L230.2,27.2z M239.2,51.7L233.7,36L228,51.7H239.2z"/>
			<path class="st37" d="M279.1,37.7c-0.3-0.3-0.7-0.6-1.4-1.1c-0.7-0.5-1.5-0.9-2.5-1.3c-1-0.4-2.1-0.8-3.2-1.1
				c-1.2-0.3-2.3-0.5-3.5-0.5c-2.1,0-3.7,0.4-4.8,1.2c-1.1,0.8-1.6,1.9-1.6,3.3c0,0.8,0.2,1.5,0.6,2.1c0.4,0.5,1,1,1.7,1.4
				c0.8,0.4,1.7,0.8,2.8,1.1c1.1,0.3,2.5,0.7,4,1.1c1.9,0.5,3.7,1.1,5.3,1.7c1.6,0.6,2.9,1.3,4,2.2s2,2,2.6,3.2
				c0.6,1.3,0.9,2.8,0.9,4.6c0,2.1-0.4,4-1.2,5.5c-0.8,1.5-1.9,2.7-3.3,3.7c-1.4,0.9-2.9,1.6-4.7,2.1c-1.8,0.4-3.6,0.6-5.6,0.6
				c-3,0-6-0.4-8.9-1.3s-5.5-2.2-7.9-3.8l3.4-6.7c0.3,0.3,0.9,0.8,1.8,1.3s1.9,1.1,3.1,1.6s2.5,1,4,1.4s3,0.6,4.5,0.6
				c4.3,0,6.4-1.4,6.4-4.1c0-0.9-0.2-1.6-0.7-2.2c-0.5-0.6-1.2-1.1-2.1-1.6s-2-0.9-3.3-1.2c-1.3-0.4-2.7-0.8-4.3-1.2
				c-1.9-0.5-3.6-1.1-5-1.7c-1.4-0.6-2.6-1.4-3.5-2.2s-1.6-1.8-2.1-2.9c-0.5-1.1-0.7-2.4-0.7-4c0-2,0.4-3.8,1.1-5.4
				c0.7-1.6,1.8-2.9,3.1-3.9s2.9-1.8,4.6-2.4c1.8-0.5,3.7-0.8,5.7-0.8c2.8,0,5.4,0.4,7.8,1.3s4.4,1.9,6.2,3.1L279.1,37.7z"/>
			<path class="st37" d="M318.2,34h-12.8v33.1h-7.7V34H285v-6.8h33.2V34z"/>
			<path class="st37" d="M349.5,60.3v6.8h-27.7V27.2H349V34h-19.5v9.6h16.8v6.3h-16.8v10.4C329.5,60.3,349.5,60.3,349.5,60.3z"/>
			<path class="st37" d="M354.2,67.1V27.2h17.7c1.8,0,3.5,0.4,5.1,1.2c1.6,0.8,2.9,1.8,4,3c1.1,1.3,2,2.7,2.6,4.3s1,3.2,1,4.8
				c0,2.6-0.6,4.9-1.9,7.1c-1.3,2.1-3,3.6-5.3,4.6l9.1,15h-8.7l-8.2-13.4H362v13.4L354.2,67.1L354.2,67.1z M361.9,46.9h9.7
				c0.7,0,1.4-0.2,2-0.5s1.2-0.8,1.6-1.4c0.5-0.6,0.8-1.3,1.1-2.1c0.3-0.8,0.4-1.6,0.4-2.5s-0.2-1.8-0.5-2.6s-0.7-1.5-1.2-2.1
				s-1.1-1-1.7-1.3c-0.7-0.3-1.3-0.5-2-0.5h-9.4V46.9z"/>
		</g>
		<g>
			<path class="st38" d="M64.8,42l47-23.8c1.2-0.7,6.4-2.6,6.4,4.7v105H92.4V83.8l-28,14l0,0c-8.6,3.9-11.6-2.8-11.6-7.7V66
				C52.8,51.1,56.4,46.8,64.8,42z"/>
			<path class="st38" d="M52.8,66v5.2l7-25.2C55.1,50,52.8,55.2,52.8,66z"/>
			<path class="st38" d="M59.8,45.9L59.8,45.9L59.8,45.9z"/>
			<path class="st39" d="M64.4,97.8L64.4,97.8l28-14v44.1h25.9V91.8L59.8,45.9l0,0l-7,25.2v19C52.8,95,55.8,101.7,64.4,97.8z"/>
			<path class="st37" d="M56,42.6L8.2,18.4c-1.5-0.5-6.9-2.8-6.9,4.5v105h25.9V83.8l28,14l0,0c8.6,3.9,11.6-2.8,11.6-7.7V63.8
				C66.8,52.7,65.4,47.4,56,42.6z"/>
		</g>
	</g>
</g>
</svg>
